# Created by Kenney (www.kenney.nl)

mtllib column.mtl

g column

v 0.1814463 0.855 0.3142743 1 1 1
v -5.775291E-15 0.855 0.3628927 1 1 1
v 0.1814463 1 0.3142743 1 1 1
v -5.775291E-15 1 0.3628927 1 1 1
v 0.3142743 1 0.1814463 1 1 1
v 0.3142743 0.855 0.1814463 1 1 1
v 0.291188 0.71 -1.443823E-15 1 1 1
v 0.2521762 0.71 -0.145594 1 1 1
v 0.2204 0.6475 0 1 1 1
v 0.190872 0.6475 -0.1102 1 1 1
v 0.145594 0.71 -0.2521762 1 1 1
v 0.1102 0.6475 -0.190872 1 1 1
v -4.331469E-15 0.71 -0.291188 1 1 1
v -4.331469E-15 0.6475 -0.2204 1 1 1
v -0.1102 0.6475 0.190872 1 1 1
v -0.190872 0.6475 0.1102 1 1 1
v -0.145594 0.71 0.2521762 1 1 1
v -0.2521762 0.71 0.145594 1 1 1
v 0 0 0.29 1 1 1
v -0.145 0 0.2511474 1 1 1
v 0 0.19 0.29 1 1 1
v -0.145 0.19 0.2511474 1 1 1
v -0.1102 0.6475 -0.190872 1 1 1
v -0.145594 0.71 -0.2521762 1 1 1
v -0.190872 0.6475 -0.1102 1 1 1
v -0.2521762 0.71 -0.145594 1 1 1
v 0.2521762 0.71 0.145594 1 1 1
v 0.190872 0.6475 0.1102 1 1 1
v 0.145594 0.71 0.2521762 1 1 1
v 0.1102 0.6475 0.190872 1 1 1
v -0.2511474 0 -0.145 1 1 1
v -0.2511474 0.19 -0.145 1 1 1
v -0.29 0 0 1 1 1
v -0.29 0.19 0 1 1 1
v 0 0 -0.29 1 1 1
v 0.145 0 -0.2511474 1 1 1
v 0 0.19 -0.29 1 1 1
v 0.145 0.19 -0.2511474 1 1 1
v -4.331469E-15 0.71 0.291188 1 1 1
v -4.331469E-15 0.6475 0.2204 1 1 1
v 0.3628927 1 0 1 1 1
v 0.3628927 0.855 0 1 1 1
v -0.2521762 0.855 0.145594 1 1 1
v -0.145594 0.855 0.2521762 1 1 1
v 0.291188 0.855 -1.443823E-15 1 1 1
v 0.2521762 0.855 0.145594 1 1 1
v 0.2511474 0.19 -0.145 1 1 1
v 0.2511474 0 -0.145 1 1 1
v 0.29 0.19 0 1 1 1
v 0.29 0 0 1 1 1
v -0.2204 0.6475 0 1 1 1
v -0.291188 0.71 0 1 1 1
v -0.145 0 -0.2511474 1 1 1
v -0.145 0.19 -0.2511474 1 1 1
v 0.3142743 1 -0.1814463 1 1 1
v 0.3142743 0.855 -0.1814463 1 1 1
v -4.331469E-15 0.335 0.2204 1 1 1
v -0.1102 0.335 0.190872 1 1 1
v 0.2521762 0.855 -0.145594 1 1 1
v 0.1814463 0.855 -0.3142743 1 1 1
v 0.145594 0.855 0.2521762 1 1 1
v 0.145594 0.855 -0.2521762 1 1 1
v -4.331469E-15 0.855 0.291188 1 1 1
v -0.1814463 0.855 0.3142743 1 1 1
v -5.775291E-15 0.855 -0.3628927 1 1 1
v -4.331469E-15 0.855 -0.291188 1 1 1
v -0.145594 0.855 -0.2521762 1 1 1
v -0.1814463 0.855 -0.3142743 1 1 1
v -0.2521762 0.855 -0.145594 1 1 1
v -0.3142743 0.855 0.1814463 1 1 1
v -0.3142743 0.855 -0.1814463 1 1 1
v -0.291188 0.855 0 1 1 1
v -0.3628927 0.855 0 1 1 1
v -0.2511474 0 0.145 1 1 1
v -0.2511474 0.19 0.145 1 1 1
v -0.3628927 1 0 1 1 1
v -0.3142743 1 0.1814463 1 1 1
v 0.1814463 1 -0.3142743 1 1 1
v -0.1814463 1 0.3142743 1 1 1
v -0.190872 0.335 -0.1102 1 1 1
v -0.2204 0.335 0 1 1 1
v 0.145 0 0.2511474 1 1 1
v 0.145 0.19 0.2511474 1 1 1
v -0.3142743 1 -0.1814463 1 1 1
v 0.190872 0.335 0.1102 1 1 1
v 0.2511474 0.19 0.145 1 1 1
v 0.1102 0.335 0.190872 1 1 1
v 0.1102 0.335 -0.190872 1 1 1
v 0.190872 0.335 -0.1102 1 1 1
v -0.190872 0.335 0.1102 1 1 1
v -4.331469E-15 0.335 -0.2204 1 1 1
v 0.2511474 0 0.145 1 1 1
v -0.1102 0.335 -0.190872 1 1 1
v -0.1814463 1 -0.3142743 1 1 1
v -5.775291E-15 1 -0.3628927 1 1 1
v 0.2204 0.335 0 1 1 1

vn 0.5 0 0.8660254
vn 0 0 1
vn 0.8660254 0 0.5
vn 0.9217712 -0.3877344 0
vn 0.7982773 -0.3877344 -0.4608856
vn 0.6618599 -0.7496275 0
vn 0.5731875 -0.7496275 -0.33093
vn 0.4608856 -0.3877344 -0.7982773
vn 0.33093 -0.7496275 -0.5731875
vn 0 -0.3877344 -0.9217712
vn 0 -0.7496275 -0.6618599
vn -0.33093 -0.7496275 0.5731875
vn -0.5731875 -0.7496275 0.33093
vn -0.4608856 -0.3877344 0.7982773
vn -0.7982773 -0.3877344 0.4608856
vn -0.5 0 0.8660254
vn 0 0.2143694 0.9767527
vn -0.4883763 0.2143694 0.8458926
vn -0.33093 -0.7496275 -0.5731875
vn -0.4608856 -0.3877344 -0.7982773
vn -0.5731875 -0.7496275 -0.33093
vn -0.7982773 -0.3877344 -0.4608856
vn 0.7982773 -0.3877344 0.4608856
vn 0.5731875 -0.7496275 0.33093
vn 0.4608856 -0.3877344 0.7982773
vn 0.33093 -0.7496275 0.5731875
vn -0.8660254 0 -0.5
vn -0.8458926 0.2143694 -0.4883763
vn -1 0 0
vn -0.9767527 0.2143694 0
vn 0 0 -1
vn 0.5 0 -0.8660254
vn 0 0.2143694 -0.9767527
vn 0.4883763 0.2143694 -0.8458926
vn 0 -0.3877344 0.9217712
vn 0 -0.7496275 0.6618599
vn 1 0 0
vn -0.8660254 0 0.5
vn 0.8458926 0.2143694 -0.4883763
vn 0.8660254 0 -0.5
vn 0.9767527 0.2143694 0
vn -0.6618599 -0.7496275 0
vn -0.9217712 -0.3877344 0
vn -0.5 0 -0.8660254
vn -0.4883763 0.2143694 -0.8458926
vn 0 0.432731 0.9015231
vn -0.4507616 0.4327311 0.7807419
vn 0 -1 0
vn -0.8458926 0.2143694 0.4883763
vn -0.7807419 0.4327311 -0.4507616
vn -0.9015231 0.432731 0
vn 0.4883763 0.2143694 0.8458926
vn 0.7807419 0.4327311 0.4507616
vn 0.8458926 0.2143694 0.4883763
vn 0.4507616 0.4327311 0.7807419
vn 0.4507616 0.4327311 -0.7807419
vn 0.7807419 0.4327311 -0.4507616
vn -0.7807419 0.4327311 0.4507616
vn 0 0.432731 -0.9015231
vn -0.4507616 0.4327311 -0.7807419
vn 0.9015231 0.432731 0
vn 0 1 0

vt 0.21875 0.196
vt 0.21875 0.225
vt 0.21875 0.167
vt 0.21875 0.1545
vt 0.21875 0.025
vt 0.21875 0.063
vt 0.21875 0.092
vt 0.21875 0.342
vt 0.21875 0.4045
vt 0.09375 0.225
vt 0.96875 0.275

usemtl colormap

f 3/2/1 2/1/2 1/1/1
f 2/1/2 3/2/1 4/2/2
f 3/2/1 6/1/3 5/2/3
f 6/1/3 3/2/1 1/1/1
f 9/4/6 8/3/5 7/3/4
f 8/3/5 9/4/6 10/4/7
f 10/4/7 11/3/8 8/3/5
f 11/3/8 10/4/7 12/4/9
f 12/4/9 13/3/10 11/3/8
f 13/3/10 12/4/9 14/4/11
f 17/3/14 16/4/13 15/4/12
f 16/4/13 17/3/14 18/3/15
f 21/6/17 20/5/16 19/5/2
f 20/5/16 21/6/17 22/6/18
f 25/4/21 24/3/20 23/4/19
f 24/3/20 25/4/21 26/3/22
f 29/3/25 28/4/24 27/3/23
f 28/4/24 29/3/25 30/4/26
f 27/3/23 9/4/6 7/3/4
f 9/4/6 27/3/23 28/4/24
f 33/5/29 32/6/28 31/5/27
f 32/6/28 33/5/29 34/6/30
f 37/6/33 36/5/32 35/5/31
f 36/5/32 37/6/33 38/6/34
f 17/3/14 40/4/36 39/3/35
f 40/4/36 17/3/14 15/4/12
f 5/2/3 42/1/37 41/2/37
f 42/1/37 5/2/3 6/1/3
f 17/3/14 43/1/38 18/3/15
f 43/1/38 17/3/14 44/1/16
f 46/1/3 7/3/4 45/1/37
f 7/3/4 46/1/3 27/3/23
f 39/3/35 30/4/26 29/3/25
f 30/4/26 39/3/35 40/4/36
f 49/6/41 48/5/40 47/6/39
f 48/5/40 49/6/41 50/5/37
f 51/4/42 26/3/22 25/4/21
f 26/3/22 51/4/42 52/3/43
f 32/6/28 53/5/44 31/5/27
f 53/5/44 32/6/28 54/6/45
f 41/2/37 56/1/40 55/2/40
f 56/1/40 41/2/37 42/1/37
f 57/7/46 22/6/18 21/6/17
f 22/6/18 57/7/46 58/7/47
f 6/1/48 56/1/48 42/1/48
f 56/1/48 6/1/48 45/1/48
f 6/1/48 46/1/48 45/1/48
f 56/1/48 45/1/48 59/1/48
f 46/1/48 6/1/48 1/1/48
f 56/1/48 59/1/48 60/1/48
f 46/1/48 1/1/48 61/1/48
f 60/1/48 59/1/48 62/1/48
f 61/1/48 1/1/48 2/1/48
f 61/1/48 2/1/48 63/1/48
f 63/1/48 2/1/48 44/1/48
f 44/1/48 2/1/48 64/1/48
f 44/1/48 64/1/48 43/1/48
f 60/1/48 62/1/48 65/1/48
f 65/1/48 62/1/48 66/1/48
f 65/1/48 66/1/48 67/1/48
f 65/1/48 67/1/48 68/1/48
f 68/1/48 67/1/48 69/1/48
f 43/1/48 64/1/48 70/1/48
f 68/1/48 69/1/48 71/1/48
f 43/1/48 70/1/48 72/1/48
f 71/1/48 69/1/48 72/1/48
f 71/1/48 72/1/48 70/1/48
f 71/1/48 70/1/48 73/1/48
f 20/5/16 75/6/49 74/5/38
f 75/6/49 20/5/16 22/6/18
f 66/1/31 11/3/8 13/3/10
f 11/3/8 66/1/31 62/1/32
f 54/6/45 35/5/31 53/5/44
f 35/5/31 54/6/45 37/6/33
f 70/1/38 76/2/29 73/1/29
f 76/2/29 70/1/38 77/2/38
f 69/1/27 24/3/20 26/3/22
f 24/3/20 69/1/27 67/1/44
f 78/2/32 56/1/40 60/1/32
f 56/1/40 78/2/32 55/2/40
f 45/1/37 8/3/5 59/1/40
f 8/3/5 45/1/37 7/3/4
f 61/1/1 39/3/35 29/3/25
f 39/3/35 61/1/1 63/1/2
f 4/2/2 64/1/16 2/1/2
f 64/1/16 4/2/2 79/2/16
f 61/1/1 27/3/23 46/1/3
f 27/3/23 61/1/1 29/3/25
f 18/3/15 51/4/42 16/4/13
f 51/4/42 18/3/15 52/3/43
f 52/3/43 69/1/27 26/3/22
f 69/1/27 52/3/43 72/1/29
f 34/6/30 80/7/50 32/6/28
f 80/7/50 34/6/30 81/7/51
f 47/6/39 36/5/32 38/6/34
f 36/5/32 47/6/39 48/5/40
f 64/1/16 77/2/38 70/1/38
f 77/2/38 64/1/16 79/2/16
f 83/6/52 19/5/2 82/5/1
f 19/5/2 83/6/52 21/6/17
f 73/1/29 84/2/27 71/1/27
f 84/2/27 73/1/29 76/2/29
f 63/1/2 17/3/14 39/3/35
f 17/3/14 63/1/2 44/1/16
f 67/1/44 13/3/10 24/3/20
f 13/3/10 67/1/44 66/1/31
f 87/7/55 86/6/54 85/7/53
f 86/6/54 87/7/55 83/6/52
f 88/7/56 47/6/39 38/6/34
f 47/6/39 88/7/56 89/7/57
f 75/6/49 81/7/51 34/6/30
f 81/7/51 75/6/49 90/7/58
f 91/7/59 38/6/34 37/6/33
f 38/6/34 91/7/59 88/7/56
f 86/6/54 50/5/37 49/6/41
f 50/5/37 86/6/54 92/5/3
f 80/7/50 54/6/45 32/6/28
f 54/6/45 80/7/50 93/7/60
f 59/1/40 11/3/8 62/1/32
f 11/3/8 59/1/40 8/3/5
f 86/6/54 82/5/1 92/5/3
f 82/5/1 86/6/54 83/6/52
f 94/2/44 65/1/31 68/1/44
f 65/1/31 94/2/44 95/2/31
f 85/7/53 49/6/41 96/7/61
f 49/6/41 85/7/53 86/6/54
f 18/3/15 72/1/29 52/3/43
f 72/1/29 18/3/15 43/1/38
f 74/5/38 34/6/30 33/5/29
f 34/6/30 74/5/38 75/6/49
f 89/7/57 49/6/41 47/6/39
f 49/6/41 89/7/57 96/7/61
f 84/2/27 68/1/44 71/1/27
f 68/1/44 84/2/27 94/2/44
f 93/7/60 37/6/33 54/6/45
f 37/6/33 93/7/60 91/7/59
f 95/2/31 60/1/32 65/1/31
f 60/1/32 95/2/31 78/2/32
f 75/6/49 58/7/47 90/7/58
f 58/7/47 75/6/49 22/6/18
f 23/4/19 13/3/10 14/4/11
f 13/3/10 23/4/19 24/3/20
f 87/7/55 21/6/17 83/6/52
f 21/6/17 87/7/55 57/7/46
f 90/8/38 51/9/29 81/8/29
f 51/9/29 90/8/38 16/9/38
f 81/8/29 25/9/27 80/8/27
f 25/9/27 81/8/29 51/9/29
f 14/9/31 88/8/32 91/8/31
f 88/8/32 14/9/31 12/9/32
f 40/9/2 58/8/16 57/8/2
f 58/8/16 40/9/2 15/9/16
f 12/9/32 89/8/40 88/8/32
f 89/8/40 12/9/32 10/9/40
f 25/9/27 93/8/44 80/8/27
f 93/8/44 25/9/27 23/9/44
f 23/9/44 91/8/31 93/8/44
f 91/8/31 23/9/44 14/9/31
f 30/9/1 57/8/2 87/8/1
f 57/8/2 30/9/1 40/9/2
f 28/9/3 96/8/37 9/9/37
f 96/8/37 28/9/3 85/8/3
f 15/9/16 90/8/38 58/8/16
f 90/8/38 15/9/16 16/9/38
f 30/9/1 85/8/3 28/9/3
f 85/8/3 30/9/1 87/8/1
f 9/9/37 89/8/40 10/9/40
f 89/8/40 9/9/37 96/8/37
f 55/10/62 5/10/62 41/10/62
f 5/10/62 55/10/62 78/10/62
f 5/10/62 78/10/62 3/10/62
f 3/10/62 78/10/62 95/10/62
f 3/10/62 95/10/62 4/10/62
f 4/10/62 95/10/62 94/10/62
f 4/10/62 94/10/62 79/10/62
f 79/10/62 94/10/62 84/10/62
f 79/10/62 84/10/62 77/10/62
f 77/10/62 84/10/62 76/10/62
f 92/11/48 48/11/48 50/11/48
f 48/11/48 92/11/48 82/11/48
f 48/11/48 82/11/48 36/11/48
f 36/11/48 82/11/48 35/11/48
f 35/11/48 82/11/48 19/11/48
f 35/11/48 19/11/48 20/11/48
f 35/11/48 20/11/48 53/11/48
f 53/11/48 20/11/48 31/11/48
f 31/11/48 20/11/48 74/11/48
f 31/11/48 74/11/48 33/11/48

g column




usemtl colormap

f 3/2/1 2/1/2 1/1/1
f 2/1/2 3/2/1 4/2/2
f 3/2/1 6/1/3 5/2/3
f 6/1/3 3/2/1 1/1/1
f 9/4/6 8/3/5 7/3/4
f 8/3/5 9/4/6 10/4/7
f 10/4/7 11/3/8 8/3/5
f 11/3/8 10/4/7 12/4/9
f 12/4/9 13/3/10 11/3/8
f 13/3/10 12/4/9 14/4/11
f 17/3/14 16/4/13 15/4/12
f 16/4/13 17/3/14 18/3/15
f 21/6/17 20/5/16 19/5/2
f 20/5/16 21/6/17 22/6/18
f 25/4/21 24/3/20 23/4/19
f 24/3/20 25/4/21 26/3/22
f 29/3/25 28/4/24 27/3/23
f 28/4/24 29/3/25 30/4/26
f 27/3/23 9/4/6 7/3/4
f 9/4/6 27/3/23 28/4/24
f 33/5/29 32/6/28 31/5/27
f 32/6/28 33/5/29 34/6/30
f 37/6/33 36/5/32 35/5/31
f 36/5/32 37/6/33 38/6/34
f 17/3/14 40/4/36 39/3/35
f 40/4/36 17/3/14 15/4/12
f 5/2/3 42/1/37 41/2/37
f 42/1/37 5/2/3 6/1/3
f 17/3/14 43/1/38 18/3/15
f 43/1/38 17/3/14 44/1/16
f 46/1/3 7/3/4 45/1/37
f 7/3/4 46/1/3 27/3/23
f 39/3/35 30/4/26 29/3/25
f 30/4/26 39/3/35 40/4/36
f 49/6/41 48/5/40 47/6/39
f 48/5/40 49/6/41 50/5/37
f 51/4/42 26/3/22 25/4/21
f 26/3/22 51/4/42 52/3/43
f 32/6/28 53/5/44 31/5/27
f 53/5/44 32/6/28 54/6/45
f 41/2/37 56/1/40 55/2/40
f 56/1/40 41/2/37 42/1/37
f 57/7/46 22/6/18 21/6/17
f 22/6/18 57/7/46 58/7/47
f 6/1/48 56/1/48 42/1/48
f 56/1/48 6/1/48 45/1/48
f 6/1/48 46/1/48 45/1/48
f 56/1/48 45/1/48 59/1/48
f 46/1/48 6/1/48 1/1/48
f 56/1/48 59/1/48 60/1/48
f 46/1/48 1/1/48 61/1/48
f 60/1/48 59/1/48 62/1/48
f 61/1/48 1/1/48 2/1/48
f 61/1/48 2/1/48 63/1/48
f 63/1/48 2/1/48 44/1/48
f 44/1/48 2/1/48 64/1/48
f 44/1/48 64/1/48 43/1/48
f 60/1/48 62/1/48 65/1/48
f 65/1/48 62/1/48 66/1/48
f 65/1/48 66/1/48 67/1/48
f 65/1/48 67/1/48 68/1/48
f 68/1/48 67/1/48 69/1/48
f 43/1/48 64/1/48 70/1/48
f 68/1/48 69/1/48 71/1/48
f 43/1/48 70/1/48 72/1/48
f 71/1/48 69/1/48 72/1/48
f 71/1/48 72/1/48 70/1/48
f 71/1/48 70/1/48 73/1/48
f 20/5/16 75/6/49 74/5/38
f 75/6/49 20/5/16 22/6/18
f 66/1/31 11/3/8 13/3/10
f 11/3/8 66/1/31 62/1/32
f 54/6/45 35/5/31 53/5/44
f 35/5/31 54/6/45 37/6/33
f 70/1/38 76/2/29 73/1/29
f 76/2/29 70/1/38 77/2/38
f 69/1/27 24/3/20 26/3/22
f 24/3/20 69/1/27 67/1/44
f 78/2/32 56/1/40 60/1/32
f 56/1/40 78/2/32 55/2/40
f 45/1/37 8/3/5 59/1/40
f 8/3/5 45/1/37 7/3/4
f 61/1/1 39/3/35 29/3/25
f 39/3/35 61/1/1 63/1/2
f 4/2/2 64/1/16 2/1/2
f 64/1/16 4/2/2 79/2/16
f 61/1/1 27/3/23 46/1/3
f 27/3/23 61/1/1 29/3/25
f 18/3/15 51/4/42 16/4/13
f 51/4/42 18/3/15 52/3/43
f 52/3/43 69/1/27 26/3/22
f 69/1/27 52/3/43 72/1/29
f 34/6/30 80/7/50 32/6/28
f 80/7/50 34/6/30 81/7/51
f 47/6/39 36/5/32 38/6/34
f 36/5/32 47/6/39 48/5/40
f 64/1/16 77/2/38 70/1/38
f 77/2/38 64/1/16 79/2/16
f 83/6/52 19/5/2 82/5/1
f 19/5/2 83/6/52 21/6/17
f 73/1/29 84/2/27 71/1/27
f 84/2/27 73/1/29 76/2/29
f 63/1/2 17/3/14 39/3/35
f 17/3/14 63/1/2 44/1/16
f 67/1/44 13/3/10 24/3/20
f 13/3/10 67/1/44 66/1/31
f 87/7/55 86/6/54 85/7/53
f 86/6/54 87/7/55 83/6/52
f 88/7/56 47/6/39 38/6/34
f 47/6/39 88/7/56 89/7/57
f 75/6/49 81/7/51 34/6/30
f 81/7/51 75/6/49 90/7/58
f 91/7/59 38/6/34 37/6/33
f 38/6/34 91/7/59 88/7/56
f 86/6/54 50/5/37 49/6/41
f 50/5/37 86/6/54 92/5/3
f 80/7/50 54/6/45 32/6/28
f 54/6/45 80/7/50 93/7/60
f 59/1/40 11/3/8 62/1/32
f 11/3/8 59/1/40 8/3/5
f 86/6/54 82/5/1 92/5/3
f 82/5/1 86/6/54 83/6/52
f 94/2/44 65/1/31 68/1/44
f 65/1/31 94/2/44 95/2/31
f 85/7/53 49/6/41 96/7/61
f 49/6/41 85/7/53 86/6/54
f 18/3/15 72/1/29 52/3/43
f 72/1/29 18/3/15 43/1/38
f 74/5/38 34/6/30 33/5/29
f 34/6/30 74/5/38 75/6/49
f 89/7/57 49/6/41 47/6/39
f 49/6/41 89/7/57 96/7/61
f 84/2/27 68/1/44 71/1/27
f 68/1/44 84/2/27 94/2/44
f 93/7/60 37/6/33 54/6/45
f 37/6/33 93/7/60 91/7/59
f 95/2/31 60/1/32 65/1/31
f 60/1/32 95/2/31 78/2/32
f 75/6/49 58/7/47 90/7/58
f 58/7/47 75/6/49 22/6/18
f 23/4/19 13/3/10 14/4/11
f 13/3/10 23/4/19 24/3/20
f 87/7/55 21/6/17 83/6/52
f 21/6/17 87/7/55 57/7/46
f 90/8/38 51/9/29 81/8/29
f 51/9/29 90/8/38 16/9/38
f 81/8/29 25/9/27 80/8/27
f 25/9/27 81/8/29 51/9/29
f 14/9/31 88/8/32 91/8/31
f 88/8/32 14/9/31 12/9/32
f 40/9/2 58/8/16 57/8/2
f 58/8/16 40/9/2 15/9/16
f 12/9/32 89/8/40 88/8/32
f 89/8/40 12/9/32 10/9/40
f 25/9/27 93/8/44 80/8/27
f 93/8/44 25/9/27 23/9/44
f 23/9/44 91/8/31 93/8/44
f 91/8/31 23/9/44 14/9/31
f 30/9/1 57/8/2 87/8/1
f 57/8/2 30/9/1 40/9/2
f 28/9/3 96/8/37 9/9/37
f 96/8/37 28/9/3 85/8/3
f 15/9/16 90/8/38 58/8/16
f 90/8/38 15/9/16 16/9/38
f 30/9/1 85/8/3 28/9/3
f 85/8/3 30/9/1 87/8/1
f 9/9/37 89/8/40 10/9/40
f 89/8/40 9/9/37 96/8/37
f 55/10/62 5/10/62 41/10/62
f 5/10/62 55/10/62 78/10/62
f 5/10/62 78/10/62 3/10/62
f 3/10/62 78/10/62 95/10/62
f 3/10/62 95/10/62 4/10/62
f 4/10/62 95/10/62 94/10/62
f 4/10/62 94/10/62 79/10/62
f 79/10/62 94/10/62 84/10/62
f 79/10/62 84/10/62 77/10/62
f 77/10/62 84/10/62 76/10/62
f 92/11/48 48/11/48 50/11/48
f 48/11/48 92/11/48 82/11/48
f 48/11/48 82/11/48 36/11/48
f 36/11/48 82/11/48 35/11/48
f 35/11/48 82/11/48 19/11/48
f 35/11/48 19/11/48 20/11/48
f 35/11/48 20/11/48 53/11/48
f 53/11/48 20/11/48 31/11/48
f 31/11/48 20/11/48 74/11/48
f 31/11/48 74/11/48 33/11/48

