# Created by Kenney (www.kenney.nl)

mtllib fence-door-rotate.mtl

g fence-door-rotate

v 0.35 0.179 0.05 1 1 1
v 0.3 0.179 0.05 1 1 1
v 0.35 0.229 0.05 1 1 1
v 0.3 0.229 0.05 1 1 1
v 0.375 0.229 -0.025 1 1 1
v 0.375 0.179 -0.025 1 1 1
v 0.375 0.229 0.025 1 1 1
v 0.375 0.179 0.025 1 1 1
v 0.3 0.179 -0.05 1 1 1
v 0.35 0.179 -0.05 1 1 1
v 0.3 0.229 -0.05 1 1 1
v 0.35 0.229 -0.05 1 1 1
v 0.275 0.179 -0.025 1 1 1
v 0.275 0.229 -0.025 1 1 1
v 0.275 0.179 0.025 1 1 1
v 0.275 0.229 0.025 1 1 1
v -0.2875 0 0.075 1 1 1
v -0.3625 0 0.075 1 1 1
v -0.2875 0.051 0.075 1 1 1
v -0.3625 0.051 0.075 1 1 1
v -0.25 0.051 -0.0375 1 1 1
v -0.25 0 -0.0375 1 1 1
v -0.25 0.051 0.0375 1 1 1
v -0.25 0 0.0375 1 1 1
v -0.3625 0 -0.075 1 1 1
v -0.2875 0 -0.075 1 1 1
v -0.3625 0.051 -0.075 1 1 1
v -0.2875 0.051 -0.075 1 1 1
v -0.4 0 -0.0375 1 1 1
v -0.4 0.051 -0.0375 1 1 1
v -0.4 0 0.0375 1 1 1
v -0.4 0.051 0.0375 1 1 1
v 0.3625 0 0.075 1 1 1
v 0.2875 0 0.075 1 1 1
v 0.3625 0.051 0.075 1 1 1
v 0.2875 0.051 0.075 1 1 1
v 0.4 0.051 -0.0375 1 1 1
v 0.4 0 -0.0375 1 1 1
v 0.4 0.051 0.0375 1 1 1
v 0.4 0 0.0375 1 1 1
v 0.2875 0 -0.075 1 1 1
v 0.3625 0 -0.075 1 1 1
v 0.2875 0.051 -0.075 1 1 1
v 0.3625 0.051 -0.075 1 1 1
v 0.25 0 -0.0375 1 1 1
v 0.25 0.051 -0.0375 1 1 1
v 0.25 0 0.0375 1 1 1
v 0.25 0.051 0.0375 1 1 1
v -0.3 0.179 0.05 1 1 1
v -0.35 0.179 0.05 1 1 1
v -0.3 0.229 0.05 1 1 1
v -0.35 0.229 0.05 1 1 1
v -0.275 0.229 -0.025 1 1 1
v -0.275 0.179 -0.025 1 1 1
v -0.275 0.229 0.025 1 1 1
v -0.275 0.179 0.025 1 1 1
v -0.35 0.179 -0.05 1 1 1
v -0.3 0.179 -0.05 1 1 1
v -0.35 0.229 -0.05 1 1 1
v -0.3 0.229 -0.05 1 1 1
v -0.375 0.179 -0.025 1 1 1
v -0.375 0.229 -0.025 1 1 1
v -0.375 0.179 0.025 1 1 1
v -0.375 0.229 0.025 1 1 1
v 0.35 0.379 -0.025 1 1 1
v 0.35 0.379 0.025 1 1 1
v 0.3 0.379 -0.025 1 1 1
v 0.3 0.379 0.025 1 1 1
v 0.3 0.051 -0.025 1 1 1
v 0.3 0.051 0.025 1 1 1
v 0.35 0.051 -0.025 1 1 1
v 0.35 0.051 0.025 1 1 1
v -0.3 0.379 -0.025 1 1 1
v -0.3 0.379 0.025 1 1 1
v -0.35 0.379 -0.025 1 1 1
v -0.35 0.379 0.025 1 1 1
v -0.35 0.051 -0.025 1 1 1
v -0.35 0.051 0.025 1 1 1
v -0.3 0.051 -0.025 1 1 1
v -0.3 0.051 0.025 1 1 1
v -0.5 0.179 0.025 1 1 1
v -0.5 0.179 -0.025 1 1 1
v -0.5 0.229 -0.025 1 1 1
v -0.5 0.229 0.025 1 1 1
v 0.5 0.179 0.025 1 1 1
v 0.5 0.179 -0.025 1 1 1
v 0.375 0.179 0.025 1 1 1
v 0.375 0.179 -0.025 1 1 1
v 0.5 0.229 -0.025 1 1 1
v 0.5 0.229 0.025 1 1 1

vn 0.3826835 0 0.9238796
vn -0.3826835 0 0.9238796
vn 0.9238796 0 -0.3826835
vn 0.9238796 0 0.3826835
vn -0.3826835 0 -0.9238796
vn 0.3826835 0 -0.9238796
vn -0.9238796 0 -0.3826835
vn -0.9238796 0 0.3826835
vn 0 1 0
vn 0 -1 0
vn -1 0 0
vn 0 0 -1
vn 1 0 0
vn 0 0 1

vt 0.21875 0.09298122
vt 0.21875 0.225
vt 0.21875 0.025
vt 0.21875 0.1089906
vt 0.21875 0.175
vt 0.46875 0.025
vt 0.46875 0.225
vt 0.46875 0.075
vt 0.46875 0.07500001
vt 0.46875 0.175

usemtl colormap

f 3/2/1 2/1/2 1/1/1
f 2/1/2 3/2/1 4/2/2
f 7/2/4 6/1/3 5/2/3
f 6/1/3 7/2/4 8/1/4
f 11/2/5 10/1/6 9/1/5
f 10/1/6 11/2/5 12/2/6
f 15/1/8 14/2/7 13/1/7
f 14/2/7 15/1/8 16/2/8
f 4/2/2 15/1/8 2/1/2
f 15/1/8 4/2/2 16/2/8
f 7/2/4 1/1/1 8/1/4
f 1/1/1 7/2/4 3/2/1
f 12/2/6 6/1/3 10/1/6
f 6/1/3 12/2/6 5/2/3
f 14/2/7 9/1/5 13/1/7
f 9/1/5 14/2/7 11/2/5
f 12/2/9 7/2/9 5/2/9
f 7/2/9 12/2/9 3/2/9
f 3/2/9 12/2/9 11/2/9
f 3/2/9 11/2/9 4/2/9
f 4/2/9 11/2/9 14/2/9
f 4/2/9 14/2/9 16/2/9
f 1/1/10 6/1/10 8/1/10
f 6/1/10 1/1/10 10/1/10
f 10/1/10 1/1/10 2/1/10
f 10/1/10 2/1/10 9/1/10
f 9/1/10 2/1/10 15/1/10
f 9/1/10 15/1/10 13/1/10
f 19/2/1 18/3/2 17/3/1
f 18/3/2 19/2/1 20/2/2
f 23/2/4 22/3/3 21/2/3
f 22/3/3 23/2/4 24/3/4
f 27/2/5 26/3/6 25/3/5
f 26/3/6 27/2/5 28/2/6
f 31/3/8 30/2/7 29/3/7
f 30/2/7 31/3/8 32/2/8
f 20/2/2 31/3/8 18/3/2
f 31/3/8 20/2/2 32/2/8
f 23/2/4 17/3/1 24/3/4
f 17/3/1 23/2/4 19/2/1
f 28/2/6 22/3/3 26/3/6
f 22/3/3 28/2/6 21/2/3
f 30/2/7 25/3/5 29/3/7
f 25/3/5 30/2/7 27/2/5
f 28/2/9 23/2/9 21/2/9
f 23/2/9 28/2/9 19/2/9
f 19/2/9 28/2/9 27/2/9
f 19/2/9 27/2/9 20/2/9
f 20/2/9 27/2/9 30/2/9
f 20/2/9 30/2/9 32/2/9
f 17/3/10 22/3/10 24/3/10
f 22/3/10 17/3/10 26/3/10
f 26/3/10 17/3/10 18/3/10
f 26/3/10 18/3/10 25/3/10
f 25/3/10 18/3/10 31/3/10
f 25/3/10 31/3/10 29/3/10
f 35/2/1 34/3/2 33/3/1
f 34/3/2 35/2/1 36/2/2
f 39/2/4 38/3/3 37/2/3
f 38/3/3 39/2/4 40/3/4
f 43/2/5 42/3/6 41/3/5
f 42/3/6 43/2/5 44/2/6
f 47/3/8 46/2/7 45/3/7
f 46/2/7 47/3/8 48/2/8
f 36/2/2 47/3/8 34/3/2
f 47/3/8 36/2/2 48/2/8
f 39/2/4 33/3/1 40/3/4
f 33/3/1 39/2/4 35/2/1
f 44/2/6 38/3/3 42/3/6
f 38/3/3 44/2/6 37/2/3
f 46/2/7 41/3/5 45/3/7
f 41/3/5 46/2/7 43/2/5
f 44/2/9 39/2/9 37/2/9
f 39/2/9 44/2/9 35/2/9
f 35/2/9 44/2/9 43/2/9
f 35/2/9 43/2/9 36/2/9
f 36/2/9 43/2/9 46/2/9
f 36/2/9 46/2/9 48/2/9
f 33/3/10 38/3/10 40/3/10
f 38/3/10 33/3/10 42/3/10
f 42/3/10 33/3/10 34/3/10
f 42/3/10 34/3/10 41/3/10
f 41/3/10 34/3/10 47/3/10
f 41/3/10 47/3/10 45/3/10
f 51/5/1 50/4/2 49/4/1
f 50/4/2 51/5/1 52/5/2
f 55/5/4 54/4/3 53/5/3
f 54/4/3 55/5/4 56/4/4
f 59/5/5 58/4/6 57/4/5
f 58/4/6 59/5/5 60/5/6
f 63/4/8 62/5/7 61/4/7
f 62/5/7 63/4/8 64/5/8
f 52/5/2 63/4/8 50/4/2
f 63/4/8 52/5/2 64/5/8
f 55/5/4 49/4/1 56/4/4
f 49/4/1 55/5/4 51/5/1
f 60/5/6 54/4/3 58/4/6
f 54/4/3 60/5/6 53/5/3
f 62/5/7 57/4/5 61/4/7
f 57/4/5 62/5/7 59/5/5
f 60/5/9 55/5/9 53/5/9
f 55/5/9 60/5/9 51/5/9
f 51/5/9 60/5/9 59/5/9
f 51/5/9 59/5/9 52/5/9
f 52/5/9 59/5/9 62/5/9
f 52/5/9 62/5/9 64/5/9
f 49/4/10 54/4/10 56/4/10
f 54/4/10 49/4/10 58/4/10
f 58/4/10 49/4/10 50/4/10
f 58/4/10 50/4/10 57/4/10
f 57/4/10 50/4/10 63/4/10
f 57/4/10 63/4/10 61/4/10
f 67/6/9 66/6/9 65/6/9
f 66/6/9 67/6/9 68/6/9
f 70/7/11 67/6/11 69/7/11
f 67/6/11 70/7/11 68/6/11
f 67/6/12 71/7/12 69/7/12
f 71/7/12 67/6/12 65/6/12
f 66/6/13 71/7/13 65/6/13
f 71/7/13 66/6/13 72/7/13
f 66/6/14 70/7/14 72/7/14
f 70/7/14 66/6/14 68/6/14
f 75/6/9 74/6/9 73/6/9
f 74/6/9 75/6/9 76/6/9
f 78/7/11 75/6/11 77/7/11
f 75/6/11 78/7/11 76/6/11
f 75/6/12 79/7/12 77/7/12
f 79/7/12 75/6/12 73/6/12
f 74/6/13 79/7/13 73/6/13
f 79/7/13 74/6/13 80/7/13
f 74/6/14 78/7/14 80/7/14
f 78/7/14 74/6/14 76/6/14
f 81/9/10 61/8/10 63/8/10
f 61/8/10 81/9/10 82/9/10
f 83/10/9 64/10/9 62/10/9
f 64/10/9 83/10/9 84/10/9
f 64/10/14 81/9/14 63/8/14
f 81/9/14 64/10/14 84/10/14
f 82/9/12 62/10/12 61/8/12
f 62/10/12 82/9/12 83/10/12
f 81/9/11 83/10/11 82/9/11
f 83/10/11 81/9/11 84/10/11
f 87/9/10 86/8/10 85/8/10
f 86/8/10 87/9/10 88/9/10
f 5/10/9 90/10/9 89/10/9
f 90/10/9 5/10/9 7/10/9
f 90/10/14 87/9/14 85/8/14
f 87/9/14 90/10/14 7/10/14
f 88/9/12 89/10/12 86/8/12
f 89/10/12 88/9/12 5/10/12
f 90/10/13 86/8/13 89/10/13
f 86/8/13 90/10/13 85/8/13

g fence-door-rotate




usemtl colormap

f 3/2/1 2/1/2 1/1/1
f 2/1/2 3/2/1 4/2/2
f 7/2/4 6/1/3 5/2/3
f 6/1/3 7/2/4 8/1/4
f 11/2/5 10/1/6 9/1/5
f 10/1/6 11/2/5 12/2/6
f 15/1/8 14/2/7 13/1/7
f 14/2/7 15/1/8 16/2/8
f 4/2/2 15/1/8 2/1/2
f 15/1/8 4/2/2 16/2/8
f 7/2/4 1/1/1 8/1/4
f 1/1/1 7/2/4 3/2/1
f 12/2/6 6/1/3 10/1/6
f 6/1/3 12/2/6 5/2/3
f 14/2/7 9/1/5 13/1/7
f 9/1/5 14/2/7 11/2/5
f 12/2/9 7/2/9 5/2/9
f 7/2/9 12/2/9 3/2/9
f 3/2/9 12/2/9 11/2/9
f 3/2/9 11/2/9 4/2/9
f 4/2/9 11/2/9 14/2/9
f 4/2/9 14/2/9 16/2/9
f 1/1/10 6/1/10 8/1/10
f 6/1/10 1/1/10 10/1/10
f 10/1/10 1/1/10 2/1/10
f 10/1/10 2/1/10 9/1/10
f 9/1/10 2/1/10 15/1/10
f 9/1/10 15/1/10 13/1/10
f 19/2/1 18/3/2 17/3/1
f 18/3/2 19/2/1 20/2/2
f 23/2/4 22/3/3 21/2/3
f 22/3/3 23/2/4 24/3/4
f 27/2/5 26/3/6 25/3/5
f 26/3/6 27/2/5 28/2/6
f 31/3/8 30/2/7 29/3/7
f 30/2/7 31/3/8 32/2/8
f 20/2/2 31/3/8 18/3/2
f 31/3/8 20/2/2 32/2/8
f 23/2/4 17/3/1 24/3/4
f 17/3/1 23/2/4 19/2/1
f 28/2/6 22/3/3 26/3/6
f 22/3/3 28/2/6 21/2/3
f 30/2/7 25/3/5 29/3/7
f 25/3/5 30/2/7 27/2/5
f 28/2/9 23/2/9 21/2/9
f 23/2/9 28/2/9 19/2/9
f 19/2/9 28/2/9 27/2/9
f 19/2/9 27/2/9 20/2/9
f 20/2/9 27/2/9 30/2/9
f 20/2/9 30/2/9 32/2/9
f 17/3/10 22/3/10 24/3/10
f 22/3/10 17/3/10 26/3/10
f 26/3/10 17/3/10 18/3/10
f 26/3/10 18/3/10 25/3/10
f 25/3/10 18/3/10 31/3/10
f 25/3/10 31/3/10 29/3/10
f 35/2/1 34/3/2 33/3/1
f 34/3/2 35/2/1 36/2/2
f 39/2/4 38/3/3 37/2/3
f 38/3/3 39/2/4 40/3/4
f 43/2/5 42/3/6 41/3/5
f 42/3/6 43/2/5 44/2/6
f 47/3/8 46/2/7 45/3/7
f 46/2/7 47/3/8 48/2/8
f 36/2/2 47/3/8 34/3/2
f 47/3/8 36/2/2 48/2/8
f 39/2/4 33/3/1 40/3/4
f 33/3/1 39/2/4 35/2/1
f 44/2/6 38/3/3 42/3/6
f 38/3/3 44/2/6 37/2/3
f 46/2/7 41/3/5 45/3/7
f 41/3/5 46/2/7 43/2/5
f 44/2/9 39/2/9 37/2/9
f 39/2/9 44/2/9 35/2/9
f 35/2/9 44/2/9 43/2/9
f 35/2/9 43/2/9 36/2/9
f 36/2/9 43/2/9 46/2/9
f 36/2/9 46/2/9 48/2/9
f 33/3/10 38/3/10 40/3/10
f 38/3/10 33/3/10 42/3/10
f 42/3/10 33/3/10 34/3/10
f 42/3/10 34/3/10 41/3/10
f 41/3/10 34/3/10 47/3/10
f 41/3/10 47/3/10 45/3/10
f 51/5/1 50/4/2 49/4/1
f 50/4/2 51/5/1 52/5/2
f 55/5/4 54/4/3 53/5/3
f 54/4/3 55/5/4 56/4/4
f 59/5/5 58/4/6 57/4/5
f 58/4/6 59/5/5 60/5/6
f 63/4/8 62/5/7 61/4/7
f 62/5/7 63/4/8 64/5/8
f 52/5/2 63/4/8 50/4/2
f 63/4/8 52/5/2 64/5/8
f 55/5/4 49/4/1 56/4/4
f 49/4/1 55/5/4 51/5/1
f 60/5/6 54/4/3 58/4/6
f 54/4/3 60/5/6 53/5/3
f 62/5/7 57/4/5 61/4/7
f 57/4/5 62/5/7 59/5/5
f 60/5/9 55/5/9 53/5/9
f 55/5/9 60/5/9 51/5/9
f 51/5/9 60/5/9 59/5/9
f 51/5/9 59/5/9 52/5/9
f 52/5/9 59/5/9 62/5/9
f 52/5/9 62/5/9 64/5/9
f 49/4/10 54/4/10 56/4/10
f 54/4/10 49/4/10 58/4/10
f 58/4/10 49/4/10 50/4/10
f 58/4/10 50/4/10 57/4/10
f 57/4/10 50/4/10 63/4/10
f 57/4/10 63/4/10 61/4/10
f 67/6/9 66/6/9 65/6/9
f 66/6/9 67/6/9 68/6/9
f 70/7/11 67/6/11 69/7/11
f 67/6/11 70/7/11 68/6/11
f 67/6/12 71/7/12 69/7/12
f 71/7/12 67/6/12 65/6/12
f 66/6/13 71/7/13 65/6/13
f 71/7/13 66/6/13 72/7/13
f 66/6/14 70/7/14 72/7/14
f 70/7/14 66/6/14 68/6/14
f 75/6/9 74/6/9 73/6/9
f 74/6/9 75/6/9 76/6/9
f 78/7/11 75/6/11 77/7/11
f 75/6/11 78/7/11 76/6/11
f 75/6/12 79/7/12 77/7/12
f 79/7/12 75/6/12 73/6/12
f 74/6/13 79/7/13 73/6/13
f 79/7/13 74/6/13 80/7/13
f 74/6/14 78/7/14 80/7/14
f 78/7/14 74/6/14 76/6/14
f 81/9/10 61/8/10 63/8/10
f 61/8/10 81/9/10 82/9/10
f 83/10/9 64/10/9 62/10/9
f 64/10/9 83/10/9 84/10/9
f 64/10/14 81/9/14 63/8/14
f 81/9/14 64/10/14 84/10/14
f 82/9/12 62/10/12 61/8/12
f 62/10/12 82/9/12 83/10/12
f 81/9/11 83/10/11 82/9/11
f 83/10/11 81/9/11 84/10/11
f 87/9/10 86/8/10 85/8/10
f 86/8/10 87/9/10 88/9/10
f 5/10/9 90/10/9 89/10/9
f 90/10/9 5/10/9 7/10/9
f 90/10/14 87/9/14 85/8/14
f 87/9/14 90/10/14 7/10/14
f 88/9/12 89/10/12 86/8/12
f 89/10/12 88/9/12 5/10/12
f 90/10/13 86/8/13 89/10/13
f 86/8/13 90/10/13 85/8/13

g door-left

v -0.0749999 0.129 -0.025 1 1 1
v -0.0749999 0.129 0.025 1 1 1
v -0.2499999 0.129 -0.025 1 1 1
v -0.2499999 0.129 0.025 1 1 1
v -0.0749999 0.329 0.025 1 1 1
v -0.0749999 0.329 -0.025 1 1 1
v -0.2499999 0.3290001 0.025 1 1 1
v -0.2499999 0.3290001 -0.025 1 1 1
v -0.03964457 0.09364466 0.025 1 1 1
v -0.03964457 0.09364466 -0.025 1 1 1
v -0.07499991 0.07900001 0.025 1 1 1
v -0.07499991 0.07900001 -0.025 1 1 1
v -0.02499992 0.129 -0.025 1 1 1
v -0.02499992 0.129 0.025 1 1 1
v -0.2499999 0.07900002 0.025 1 1 1
v -0.2499999 0.07900002 -0.025 1 1 1
v -0.2853553 0.09364468 0.025 1 1 1
v -0.2853553 0.09364468 -0.025 1 1 1
v -0.2999999 0.129 -0.025 1 1 1
v -0.2999999 0.129 0.025 1 1 1
v -0.07499991 0.379 -0.025 1 1 1
v -0.07499991 0.379 0.025 1 1 1
v -0.2499999 0.379 -0.025 1 1 1
v -0.2499999 0.379 0.025 1 1 1
v -0.03964457 0.3643553 -0.025 1 1 1
v -0.03964457 0.3643553 0.025 1 1 1
v -0.2853553 0.3643553 -0.025 1 1 1
v -0.2853553 0.3643553 0.025 1 1 1
v -0.2999999 0.329 -0.025 1 1 1
v -0.2999999 0.329 0.025 1 1 1
v -0.02499992 0.329 -0.025 1 1 1
v -0.02499992 0.329 0.025 1 1 1
v -0.07499994 0.179 -7.219114E-16 1 1 1
v -0.25 0.179 -7.219114E-16 1 1 1
v -0.07499994 0.279 -7.219114E-16 1 1 1
v -0.25 0.279 -7.219114E-16 1 1 1

vn 0.7071067 -0.7071068 0
vn 0.1950903 -0.9807853 0
vn 0.9807853 -0.1950903 0
vn -0.1950904 -0.9807853 0
vn -0.7071068 -0.7071067 0
vn -0.9807853 -0.1950903 0
vn 0.1950904 0.9807853 0
vn -0.1950903 0.9807853 0
vn 0.7071068 0.7071067 0
vn -0.7071067 0.7071068 0
vn -0.9807853 0.1950903 0
vn 0.9807853 0.1950903 0

vt 0.46875 0.1416667
vt 0.46875 0.2083333
vt 0.46875 0.2083333
vt 0.46875 0.1298815
vt 0.46875 0.125
vt 0.46875 0.1298816
vt 0.46875 0.2201184
vt 0.21875 0.475
vt 0.21875 0.275

usemtl colormap

f 93/11/9 92/11/9 91/11/9
f 92/11/9 93/11/9 94/11/9
f 97/13/10 96/12/10 95/12/10
f 96/12/10 97/13/10 98/13/10
f 101/15/16 100/14/15 99/14/15
f 100/14/15 101/15/16 102/15/16
f 104/11/17 100/14/15 103/11/17
f 100/14/15 104/11/17 99/14/15
f 105/15/18 102/15/16 101/15/16
f 102/15/16 105/15/18 106/15/18
f 107/16/19 106/15/18 105/15/18
f 106/15/18 107/16/19 108/16/19
f 107/16/19 109/11/20 108/16/19
f 109/11/20 107/16/19 110/11/20
f 97/13/13 93/11/13 98/13/13
f 93/11/13 97/13/13 94/11/13
f 113/7/22 112/7/21 111/7/21
f 112/7/21 113/7/22 114/7/22
f 111/7/21 116/17/23 115/17/23
f 116/17/23 111/7/21 112/7/21
f 117/17/24 114/7/22 113/7/22
f 114/7/22 117/17/24 118/17/24
f 120/12/25 117/17/24 119/12/25
f 117/17/24 120/12/25 118/17/24
f 116/17/23 121/12/26 115/17/23
f 121/12/26 116/17/23 122/12/26
f 92/11/11 96/12/11 91/11/11
f 96/12/11 92/11/11 95/12/11
f 110/11/20 119/12/25 109/11/20
f 119/12/25 110/11/20 120/12/25
f 111/7/12 117/17/12 113/7/12
f 115/17/12 117/17/12 111/7/12
f 98/13/12 117/17/12 115/17/12
f 98/13/12 119/12/12 117/17/12
f 98/13/12 109/11/12 119/12/12
f 93/11/12 109/11/12 98/13/12
f 115/17/12 96/12/12 98/13/12
f 121/12/12 96/12/12 115/17/12
f 93/11/12 108/16/12 109/11/12
f 103/11/12 96/12/12 121/12/12
f 103/11/12 91/11/12 96/12/12
f 108/16/12 93/11/12 91/11/12
f 103/11/12 108/16/12 91/11/12
f 100/14/12 108/16/12 103/11/12
f 100/14/12 106/15/12 108/16/12
f 106/15/12 100/14/12 102/15/12
f 99/14/14 105/15/14 101/15/14
f 105/15/14 99/14/14 107/16/14
f 107/16/14 99/14/14 104/11/14
f 107/16/14 104/11/14 92/11/14
f 94/11/14 107/16/14 92/11/14
f 107/16/14 94/11/14 110/11/14
f 92/11/14 104/11/14 95/12/14
f 95/12/14 104/11/14 122/12/14
f 110/11/14 94/11/14 97/13/14
f 95/12/14 122/12/14 116/17/14
f 95/12/14 116/17/14 97/13/14
f 110/11/14 97/13/14 120/12/14
f 120/12/14 97/13/14 118/17/14
f 118/17/14 97/13/14 116/17/14
f 118/17/14 116/17/14 112/7/14
f 118/17/14 112/7/14 114/7/14
f 122/12/26 103/11/17 121/12/26
f 103/11/17 122/12/26 104/11/17
f 125/19/14 124/18/14 123/18/14
f 124/18/14 125/19/14 126/19/14
f 123/18/12 124/18/12 125/19/12
f 126/19/12 125/19/12 124/18/12

g door-right

v 0.07499999 0.1289999 -0.025 1 1 1
v 0.07499999 0.1289999 0.025 1 1 1
v 0.25 0.1289999 -0.025 1 1 1
v 0.25 0.1289999 0.025 1 1 1
v 0.07499999 0.329 0.025 1 1 1
v 0.07499999 0.329 -0.025 1 1 1
v 0.25 0.329 0.025 1 1 1
v 0.25 0.329 -0.025 1 1 1
v 0.03964466 0.09364462 0.025 1 1 1
v 0.03964466 0.09364462 -0.025 1 1 1
v 0.07500002 0.07899997 0.025 1 1 1
v 0.07500002 0.07899997 -0.025 1 1 1
v 0.02500001 0.129 -0.025 1 1 1
v 0.02500001 0.129 0.025 1 1 1
v 0.25 0.07899997 0.025 1 1 1
v 0.25 0.07899997 -0.025 1 1 1
v 0.2853554 0.09364463 0.025 1 1 1
v 0.2853554 0.09364463 -0.025 1 1 1
v 0.3 0.129 -0.025 1 1 1
v 0.3 0.129 0.025 1 1 1
v 0.07500002 0.3789999 -0.025 1 1 1
v 0.07500002 0.3789999 0.025 1 1 1
v 0.25 0.379 -0.025 1 1 1
v 0.25 0.379 0.025 1 1 1
v 0.03964466 0.3643553 -0.025 1 1 1
v 0.03964466 0.3643553 0.025 1 1 1
v 0.2853554 0.3643553 -0.025 1 1 1
v 0.2853554 0.3643553 0.025 1 1 1
v 0.3 0.329 -0.025 1 1 1
v 0.3 0.329 0.025 1 1 1
v 0.02500001 0.3289999 -0.025 1 1 1
v 0.02500001 0.3289999 0.025 1 1 1
v 0.07499994 0.179 -7.219114E-16 1 1 1
v 0.25 0.179 -7.219114E-16 1 1 1
v 0.07499994 0.279 -7.219114E-16 1 1 1
v 0.25 0.279 -7.219114E-16 1 1 1

vn -0.7071067 -0.7071068 0
vn -0.1950903 -0.9807853 0
vn -0.9807853 -0.1950903 0
vn 0.1950904 -0.9807853 0
vn 0.7071068 -0.7071067 0
vn 0.9807853 -0.1950903 0
vn -0.1950904 0.9807853 0
vn 0.1950903 0.9807853 0
vn -0.7071068 0.7071067 0
vn 0.7071067 0.7071068 0
vn 0.9807853 0.1950903 0
vn -0.9807853 0.1950903 0


usemtl colormap

f 140/11/29 158/12/38 139/11/29
f 157/12/38 139/11/29 158/12/38
f 150/7/14 148/7/14 154/17/14
f 148/7/14 152/17/14 154/17/14
f 152/17/14 133/13/14 154/17/14
f 154/17/14 133/13/14 156/12/14
f 156/12/14 133/13/14 146/11/14
f 133/13/14 152/17/14 131/12/14
f 152/17/14 158/12/14 131/12/14
f 133/13/14 130/11/14 146/11/14
f 158/12/14 140/11/14 131/12/14
f 131/12/14 140/11/14 128/11/14
f 146/11/14 130/11/14 143/16/14
f 128/11/14 143/16/14 130/11/14
f 128/11/14 140/11/14 143/16/14
f 140/11/14 135/14/14 143/16/14
f 143/16/14 135/14/14 141/15/14
f 137/15/14 141/15/14 135/14/14
f 138/15/12 136/14/12 142/15/12
f 144/16/12 142/15/12 136/14/12
f 139/11/12 144/16/12 136/14/12
f 127/11/12 144/16/12 139/11/12
f 127/11/12 129/11/12 144/16/12
f 132/12/12 127/11/12 139/11/12
f 157/12/12 132/12/12 139/11/12
f 145/11/12 144/16/12 129/11/12
f 151/17/12 132/12/12 157/12/12
f 134/13/12 132/12/12 151/17/12
f 134/13/12 145/11/12 129/11/12
f 155/12/12 145/11/12 134/13/12
f 153/17/12 155/12/12 134/13/12
f 151/17/12 153/17/12 134/13/12
f 147/7/12 153/17/12 151/17/12
f 149/7/12 153/17/12 147/7/12
f 156/12/37 146/11/32 155/12/37
f 145/11/32 155/12/37 146/11/32
f 131/12/13 128/11/13 132/12/13
f 127/11/13 132/12/13 128/11/13
f 158/12/38 152/17/35 157/12/38
f 151/17/35 157/12/38 152/17/35
f 154/17/36 156/12/37 153/17/36
f 155/12/37 153/17/36 156/12/37
f 154/17/36 153/17/36 150/7/34
f 149/7/34 150/7/34 153/17/36
f 148/7/33 147/7/33 152/17/35
f 151/17/35 152/17/35 147/7/33
f 150/7/34 149/7/34 148/7/33
f 147/7/33 148/7/33 149/7/34
f 130/11/11 133/13/11 129/11/11
f 134/13/11 129/11/11 133/13/11
f 146/11/32 143/16/31 145/11/32
f 144/16/31 145/11/32 143/16/31
f 144/16/31 143/16/31 142/15/30
f 141/15/30 142/15/30 143/16/31
f 142/15/30 141/15/30 138/15/28
f 137/15/28 138/15/28 141/15/30
f 135/14/27 140/11/29 136/14/27
f 139/11/29 136/14/27 140/11/29
f 138/15/28 137/15/28 136/14/27
f 135/14/27 136/14/27 137/15/28
f 134/13/10 133/13/10 132/12/10
f 131/12/10 132/12/10 133/13/10
f 130/11/9 129/11/9 128/11/9
f 127/11/9 128/11/9 129/11/9
f 160/18/12 161/19/12 162/19/12
f 161/19/12 160/18/12 159/18/12
f 162/19/14 161/19/14 160/18/14
f 159/18/14 160/18/14 161/19/14

