# Created by Kenney (www.kenney.nl)

mtllib fence.mtl

g fence

v 0.0375 0 0.075 1 1 1
v -0.0375 0 0.075 1 1 1
v 0.0375 0.051 0.075 1 1 1
v -0.0375 0.051 0.075 1 1 1
v 0.075 0.051 -0.0375 1 1 1
v 0.075 0 -0.0375 1 1 1
v 0.075 0.051 0.0375 1 1 1
v 0.075 0 0.0375 1 1 1
v -0.0375 0 -0.075 1 1 1
v 0.0375 0 -0.075 1 1 1
v -0.0375 0.051 -0.075 1 1 1
v 0.0375 0.051 -0.075 1 1 1
v -0.075 0 -0.0375 1 1 1
v -0.075 0.051 -0.0375 1 1 1
v -0.075 0 0.0375 1 1 1
v -0.075 0.051 0.0375 1 1 1
v 0.025 0.179 0.05 1 1 1
v -0.025 0.179 0.05 1 1 1
v 0.025 0.229 0.05 1 1 1
v -0.025 0.229 0.05 1 1 1
v 0.05 0.229 -0.025 1 1 1
v 0.05 0.179 -0.025 1 1 1
v 0.05 0.229 0.025 1 1 1
v 0.05 0.179 0.025 1 1 1
v -0.025 0.179 -0.05 1 1 1
v 0.025 0.179 -0.05 1 1 1
v -0.025 0.229 -0.05 1 1 1
v 0.025 0.229 -0.05 1 1 1
v -0.05 0.179 -0.025 1 1 1
v -0.05 0.229 -0.025 1 1 1
v -0.05 0.179 0.025 1 1 1
v -0.05 0.229 0.025 1 1 1
v 0.025 0.379 -0.025 1 1 1
v 0.025 0.379 0.025 1 1 1
v -0.025 0.379 -0.025 1 1 1
v -0.025 0.379 0.025 1 1 1
v -0.025 0.051 -0.025 1 1 1
v -0.025 0.051 0.025 1 1 1
v 0.025 0.051 -0.025 1 1 1
v 0.025 0.051 0.025 1 1 1
v -0.04999998 0.179 0.025 1 1 1
v -0.04999998 0.179 -0.025 1 1 1
v -0.5 0.179 0.025 1 1 1
v -0.5 0.179 -0.025 1 1 1
v -0.04999998 0.229 -0.025 1 1 1
v -0.04999998 0.229 0.025 1 1 1
v -0.5 0.229 -0.025 1 1 1
v -0.5 0.229 0.025 1 1 1

vn 0.3826835 0 0.9238796
vn -0.3826835 0 0.9238796
vn 0.9238796 0 -0.3826835
vn 0.9238796 0 0.3826835
vn -0.3826835 0 -0.9238796
vn 0.3826835 0 -0.9238796
vn -0.9238796 0 -0.3826835
vn -0.9238796 0 0.3826835
vn 0 1 0
vn 0 -1 0
vn -1 0 0
vn 0 0 -1
vn 1 0 0
vn 0 0 1

vt 0.21875 0.025
vt 0.21875 0.225
vt 0.21875 0.1089906
vt 0.21875 0.175
vt 0.46875 0.025
vt 0.46875 0.225
vt 0.46875 0.075
vt 0.46875 0.07500001
vt 0.46875 0.175

usemtl colormap

f 3/2/1 2/1/2 1/1/1
f 2/1/2 3/2/1 4/2/2
f 7/2/4 6/1/3 5/2/3
f 6/1/3 7/2/4 8/1/4
f 11/2/5 10/1/6 9/1/5
f 10/1/6 11/2/5 12/2/6
f 15/1/8 14/2/7 13/1/7
f 14/2/7 15/1/8 16/2/8
f 4/2/2 15/1/8 2/1/2
f 15/1/8 4/2/2 16/2/8
f 7/2/4 1/1/1 8/1/4
f 1/1/1 7/2/4 3/2/1
f 12/2/6 6/1/3 10/1/6
f 6/1/3 12/2/6 5/2/3
f 14/2/7 9/1/5 13/1/7
f 9/1/5 14/2/7 11/2/5
f 12/2/9 7/2/9 5/2/9
f 7/2/9 12/2/9 3/2/9
f 3/2/9 12/2/9 11/2/9
f 3/2/9 11/2/9 4/2/9
f 4/2/9 11/2/9 14/2/9
f 4/2/9 14/2/9 16/2/9
f 1/1/10 6/1/10 8/1/10
f 6/1/10 1/1/10 10/1/10
f 10/1/10 1/1/10 2/1/10
f 10/1/10 2/1/10 9/1/10
f 9/1/10 2/1/10 15/1/10
f 9/1/10 15/1/10 13/1/10
f 19/4/1 18/3/2 17/3/1
f 18/3/2 19/4/1 20/4/2
f 23/4/4 22/3/3 21/4/3
f 22/3/3 23/4/4 24/3/4
f 27/4/5 26/3/6 25/3/5
f 26/3/6 27/4/5 28/4/6
f 31/3/8 30/4/7 29/3/7
f 30/4/7 31/3/8 32/4/8
f 20/4/2 31/3/8 18/3/2
f 31/3/8 20/4/2 32/4/8
f 23/4/4 17/3/1 24/3/4
f 17/3/1 23/4/4 19/4/1
f 28/4/6 22/3/3 26/3/6
f 22/3/3 28/4/6 21/4/3
f 30/4/7 25/3/5 29/3/7
f 25/3/5 30/4/7 27/4/5
f 28/4/9 23/4/9 21/4/9
f 23/4/9 28/4/9 19/4/9
f 19/4/9 28/4/9 27/4/9
f 19/4/9 27/4/9 20/4/9
f 20/4/9 27/4/9 30/4/9
f 20/4/9 30/4/9 32/4/9
f 17/3/10 22/3/10 24/3/10
f 22/3/10 17/3/10 26/3/10
f 26/3/10 17/3/10 18/3/10
f 26/3/10 18/3/10 25/3/10
f 25/3/10 18/3/10 31/3/10
f 25/3/10 31/3/10 29/3/10
f 35/5/9 34/5/9 33/5/9
f 34/5/9 35/5/9 36/5/9
f 38/6/11 35/5/11 37/6/11
f 35/5/11 38/6/11 36/5/11
f 35/5/12 39/6/12 37/6/12
f 39/6/12 35/5/12 33/5/12
f 34/5/13 39/6/13 33/5/13
f 39/6/13 34/5/13 40/6/13
f 34/5/14 38/6/14 40/6/14
f 38/6/14 34/5/14 36/5/14
f 43/8/10 42/7/10 41/7/10
f 42/7/10 43/8/10 44/8/10
f 47/9/9 46/9/9 45/9/9
f 46/9/9 47/9/9 48/9/9
f 46/9/14 43/8/14 41/7/14
f 43/8/14 46/9/14 48/9/14
f 44/8/12 45/9/12 42/7/12
f 45/9/12 44/8/12 47/9/12
f 43/8/11 47/9/11 44/8/11
f 47/9/11 43/8/11 48/9/11

g fence




usemtl colormap

f 3/2/1 2/1/2 1/1/1
f 2/1/2 3/2/1 4/2/2
f 7/2/4 6/1/3 5/2/3
f 6/1/3 7/2/4 8/1/4
f 11/2/5 10/1/6 9/1/5
f 10/1/6 11/2/5 12/2/6
f 15/1/8 14/2/7 13/1/7
f 14/2/7 15/1/8 16/2/8
f 4/2/2 15/1/8 2/1/2
f 15/1/8 4/2/2 16/2/8
f 7/2/4 1/1/1 8/1/4
f 1/1/1 7/2/4 3/2/1
f 12/2/6 6/1/3 10/1/6
f 6/1/3 12/2/6 5/2/3
f 14/2/7 9/1/5 13/1/7
f 9/1/5 14/2/7 11/2/5
f 12/2/9 7/2/9 5/2/9
f 7/2/9 12/2/9 3/2/9
f 3/2/9 12/2/9 11/2/9
f 3/2/9 11/2/9 4/2/9
f 4/2/9 11/2/9 14/2/9
f 4/2/9 14/2/9 16/2/9
f 1/1/10 6/1/10 8/1/10
f 6/1/10 1/1/10 10/1/10
f 10/1/10 1/1/10 2/1/10
f 10/1/10 2/1/10 9/1/10
f 9/1/10 2/1/10 15/1/10
f 9/1/10 15/1/10 13/1/10
f 19/4/1 18/3/2 17/3/1
f 18/3/2 19/4/1 20/4/2
f 23/4/4 22/3/3 21/4/3
f 22/3/3 23/4/4 24/3/4
f 27/4/5 26/3/6 25/3/5
f 26/3/6 27/4/5 28/4/6
f 31/3/8 30/4/7 29/3/7
f 30/4/7 31/3/8 32/4/8
f 20/4/2 31/3/8 18/3/2
f 31/3/8 20/4/2 32/4/8
f 23/4/4 17/3/1 24/3/4
f 17/3/1 23/4/4 19/4/1
f 28/4/6 22/3/3 26/3/6
f 22/3/3 28/4/6 21/4/3
f 30/4/7 25/3/5 29/3/7
f 25/3/5 30/4/7 27/4/5
f 28/4/9 23/4/9 21/4/9
f 23/4/9 28/4/9 19/4/9
f 19/4/9 28/4/9 27/4/9
f 19/4/9 27/4/9 20/4/9
f 20/4/9 27/4/9 30/4/9
f 20/4/9 30/4/9 32/4/9
f 17/3/10 22/3/10 24/3/10
f 22/3/10 17/3/10 26/3/10
f 26/3/10 17/3/10 18/3/10
f 26/3/10 18/3/10 25/3/10
f 25/3/10 18/3/10 31/3/10
f 25/3/10 31/3/10 29/3/10
f 35/5/9 34/5/9 33/5/9
f 34/5/9 35/5/9 36/5/9
f 38/6/11 35/5/11 37/6/11
f 35/5/11 38/6/11 36/5/11
f 35/5/12 39/6/12 37/6/12
f 39/6/12 35/5/12 33/5/12
f 34/5/13 39/6/13 33/5/13
f 39/6/13 34/5/13 40/6/13
f 34/5/14 38/6/14 40/6/14
f 38/6/14 34/5/14 36/5/14
f 43/8/10 42/7/10 41/7/10
f 42/7/10 43/8/10 44/8/10
f 47/9/9 46/9/9 45/9/9
f 46/9/9 47/9/9 48/9/9
f 46/9/14 43/8/14 41/7/14
f 43/8/14 46/9/14 48/9/14
f 44/8/12 45/9/12 42/7/12
f 45/9/12 44/8/12 47/9/12
f 43/8/11 47/9/11 44/8/11
f 47/9/11 43/8/11 48/9/11

