# Created by Kenney (www.kenney.nl)

mtllib freezer.mtl

g freezer

v 0.35 1.292673E-14 0.2292893 1 1 1
v 0.3292893 0 0.25 1 1 1
v 0.35 0.1 0.2292893 1 1 1
v 0.3292893 0.1 0.25 1 1 1
v -0.35 1.297185E-14 0.2292893 1 1 1
v -0.35 0.1 0.2292893 1 1 1
v -0.3292893 0 0.25 1 1 1
v -0.3292893 0.1 0.25 1 1 1
v 0.35 2.98375E-13 -0.2292893 1 1 1
v 0.35 0.1 -0.2292893 1 1 1
v 0.3292893 3.113243E-13 -0.25 1 1 1
v 0.3292893 0.1 -0.25 1 1 1
v -0.35 2.98375E-13 -0.2292893 1 1 1
v -0.35 0.1 -0.2292893 1 1 1
v -0.3292893 3.113694E-13 -0.25 1 1 1
v -0.3292893 0.1 -0.25 1 1 1
v 0.4 0.3 -0.25 1 1 1
v 0.4 0.3 0.25 1 1 1
v 0.35 0.3 -0.3 1 1 1
v 0.35 0.3 0.3 1 1 1
v -0.35 0.3 -0.3 1 1 1
v -0.35 0.3 0.3 1 1 1
v -0.4 0.3 -0.25 1 1 1
v -0.4 0.3 0.25 1 1 1
v 0.4 0.1 -0.25 1 1 1
v 0.4 0.1 0.25 1 1 1
v -0.35 0.1 -0.3 1 1 1
v 0.35 0.1 -0.3 1 1 1
v -0.4 0.1 -0.25 1 1 1
v -0.4 0.1 0.25 1 1 1
v -0.35 0.1 0.3 1 1 1
v 0.35 0.1 0.3 1 1 1
v 0.3292893 0.3 0.25 1 1 1
v 0.3292893 0.35 0.25 1 1 1
v 0.35 0.3 0.2292893 1 1 1
v 0.35 0.35 0.2292893 1 1 1
v 0.125 0.3375 0.07499999 1 1 1
v 0.125 0.325 0.07499999 1 1 1
v 0.075 0.35 0.07499999 1 1 1
v 0.075 0.325 0.07499999 1 1 1
v 0.125 0.325 -0.07500002 1 1 1
v 0.125 0.3374999 -0.07500002 1 1 1
v 0.075 0.325 -0.07500002 1 1 1
v 0.075 0.35 -0.07500002 1 1 1
v 0.075 0.325 0.2 1 1 1
v 0.075 0.35 0.2 1 1 1
v 0.075 0.3249999 -0.2 1 1 1
v 0.075 0.3499999 -0.2 1 1 1
v 0.35 0.2999999 -0.2292894 1 1 1
v 0.35 0.3499999 -0.2292894 1 1 1
v 0.3292893 0.2999999 -0.2500001 1 1 1
v 0.3292893 0.3499999 -0.2500001 1 1 1
v 0.3 0.325 0.2 1 1 1
v 0.3 0.3249999 -0.2 1 1 1
v 0.3 0.35 0.2 1 1 1
v 0.3 0.3499999 -0.2 1 1 1
v 0.04571068 0.35 0.25 1 1 1
v 0.04571068 0.3 0.25 1 1 1
v 0.025 0.3 0.2292893 1 1 1
v 0.025 0.35 0.2292893 1 1 1
v 0.025 0.3499999 -0.2292894 1 1 1
v 0.04571068 0.3499999 -0.2500001 1 1 1
v 0.04571068 0.2999999 -0.2500001 1 1 1
v 0.025 0.2999999 -0.2292894 1 1 1
v -0.04571068 0.3 0.25 1 1 1
v -0.04571068 0.35 0.25 1 1 1
v -0.02500001 0.3 0.2292893 1 1 1
v -0.02500001 0.35 0.2292893 1 1 1
v -0.25 0.3375 0.07499999 1 1 1
v -0.25 0.325 0.07499999 1 1 1
v -0.3 0.35 0.07499999 1 1 1
v -0.3 0.325 0.07499999 1 1 1
v -0.25 0.325 -0.07500002 1 1 1
v -0.25 0.3374999 -0.07500002 1 1 1
v -0.3 0.325 -0.07500002 1 1 1
v -0.3 0.35 -0.07500002 1 1 1
v -0.3 0.325 0.2 1 1 1
v -0.3 0.35 0.2 1 1 1
v -0.3 0.3249999 -0.2 1 1 1
v -0.3 0.3499999 -0.2 1 1 1
v -0.02500001 0.2999999 -0.2292894 1 1 1
v -0.02500001 0.3499999 -0.2292894 1 1 1
v -0.04571068 0.2999999 -0.2500001 1 1 1
v -0.04571068 0.3499999 -0.2500001 1 1 1
v -0.075 0.325 0.2 1 1 1
v -0.075 0.3249999 -0.2 1 1 1
v -0.075 0.35 0.2 1 1 1
v -0.075 0.3499999 -0.2 1 1 1
v -0.35 0.2999999 -0.2292894 1 1 1
v -0.3292893 0.2999999 -0.2500001 1 1 1
v -0.35 0.3499999 -0.2292894 1 1 1
v -0.3292893 0.3499999 -0.2500001 1 1 1
v -0.3292893 0.35 0.25 1 1 1
v -0.35 0.35 0.2292893 1 1 1
v -0.35 0.3 0.2292893 1 1 1
v -0.3292893 0.3 0.25 1 1 1

vn 0.9238795 0 0.3826834
vn 0.3826834 0 0.9238795
vn -0.9238795 0 0.3826834
vn -0.3826834 0 0.9238795
vn 0.9238795 0 -0.3826834
vn 0.3826834 0 -0.9238795
vn -0.9238795 0 -0.3826834
vn 0 -1 0
vn -0.3826834 0 -0.9238795
vn 0 1 0
vn 0.3826834 1.10135E-07 0.9238796
vn 0.9238795 4.561942E-08 0.3826835
vn 0 1.192093E-07 1
vn 1 0 0
vn 0.7882054 0.6154123 -7.336286E-08
vn 0 -1.192093E-07 -1
vn 0.2425356 0.9701427 -1.1565E-07
vn 0.9238795 -4.561942E-08 -0.3826835
vn 0.3826834 -1.10135E-07 -0.9238796
vn -1 0 0
vn -0.3826834 1.10135E-07 0.9238796
vn -0.9238795 4.561942E-08 0.3826835
vn 0 1 -1.192093E-07
vn -0.3826834 -1.10135E-07 -0.9238796
vn -0.9238795 -4.561942E-08 -0.3826835
vn 0 -1 1.192093E-07

vt 0.21875 0.025
vt 0.21875 0.09166666
vt 0.21875 0.225
vt 0.46875 0.025
vt 0.46875 0.03328427
vt 0.46875 0.095
vt 0.46875 0.155
vt 0.46875 0.045
vt 0.46875 0.205
vt 0.46875 0.2167157
vt 0.46875 0.225
vt 0.59375 0.045
vt 0.59375 0.205
vt 0.59375 0.095
vt 0.59375 0.155

usemtl colormap

f 3/2/1 2/1/2 1/1/1
f 2/1/2 3/2/1 4/2/2
f 7/1/4 6/2/3 5/1/3
f 6/2/3 7/1/4 8/2/4
f 10/2/5 1/1/1 9/1/5
f 1/1/1 10/2/5 3/2/1
f 11/1/6 10/2/5 9/1/5
f 10/2/5 11/1/6 12/2/6
f 5/1/3 14/2/7 13/1/7
f 14/2/7 5/1/3 6/2/3
f 4/2/2 7/1/4 2/1/2
f 7/1/4 4/2/2 8/2/4
f 2/1/8 9/1/8 1/1/8
f 9/1/8 2/1/8 11/1/8
f 11/1/8 2/1/8 7/1/8
f 11/1/8 7/1/8 15/1/8
f 15/1/8 7/1/8 5/1/8
f 15/1/8 5/1/8 13/1/8
f 15/1/9 12/2/6 11/1/6
f 12/2/6 15/1/9 16/2/9
f 13/1/7 16/2/9 15/1/9
f 16/2/9 13/1/7 14/2/7
f 19/3/10 18/3/10 17/3/10
f 18/3/10 19/3/10 20/3/10
f 20/3/10 19/3/10 21/3/10
f 20/3/10 21/3/10 22/3/10
f 22/3/10 21/3/10 23/3/10
f 22/3/10 23/3/10 24/3/10
f 17/1/5 26/3/1 25/3/5
f 26/3/1 17/1/5 18/1/1
f 21/1/9 28/3/6 27/3/9
f 28/3/6 21/1/9 19/1/6
f 27/3/8 30/3/8 29/3/8
f 14/3/8 30/3/8 27/3/8
f 27/3/8 16/3/8 14/3/8
f 6/3/8 30/3/8 14/3/8
f 27/3/8 12/3/8 16/3/8
f 6/3/8 31/3/8 30/3/8
f 8/3/8 31/3/8 6/3/8
f 4/3/8 31/3/8 8/3/8
f 28/3/8 12/3/8 27/3/8
f 4/3/8 32/3/8 31/3/8
f 28/3/8 10/3/8 12/3/8
f 28/3/8 3/3/8 10/3/8
f 32/3/8 4/3/8 3/3/8
f 28/3/8 32/3/8 3/3/8
f 25/3/8 32/3/8 28/3/8
f 32/3/8 25/3/8 26/3/8
f 22/1/4 30/3/3 31/3/4
f 30/3/3 22/1/4 24/1/3
f 20/1/2 31/3/4 32/3/2
f 31/3/4 20/1/2 22/1/4
f 26/3/1 20/1/2 32/3/2
f 20/1/2 26/3/1 18/1/1
f 19/1/6 25/3/5 28/3/6
f 25/3/5 19/1/6 17/1/5
f 30/3/3 23/1/7 29/3/7
f 23/1/7 30/3/3 24/1/3
f 29/3/7 21/1/9 27/3/9
f 21/1/9 29/3/7 23/1/7
f 35/5/12 34/4/11 33/4/11
f 34/4/11 35/5/12 36/5/12
f 39/6/13 38/6/13 37/6/13
f 38/6/13 39/6/13 40/6/13
f 41/7/14 37/6/15 38/6/14
f 37/6/15 41/7/14 42/7/15
f 43/7/16 42/7/16 41/7/16
f 42/7/16 43/7/16 44/7/16
f 37/6/15 44/7/17 39/6/17
f 44/7/17 37/6/15 42/7/15
f 40/6/14 46/8/14 45/8/14
f 46/8/14 40/6/14 39/6/14
f 47/9/14 44/7/14 43/7/14
f 44/7/14 47/9/14 48/9/14
f 51/11/19 50/10/18 49/10/18
f 50/10/18 51/11/19 52/11/19
f 49/10/18 36/5/12 35/5/12
f 36/5/12 49/10/18 50/10/18
f 55/8/20 54/9/20 53/8/20
f 54/9/20 55/8/20 56/9/20
f 57/4/21 33/4/11 34/4/11
f 33/4/11 57/4/21 58/4/21
f 48/9/13 54/9/13 56/9/13
f 54/9/13 48/9/13 47/9/13
f 57/4/21 59/5/22 58/4/21
f 59/5/22 57/4/21 60/5/22
f 45/8/16 55/8/16 53/8/16
f 55/8/16 45/8/16 46/8/16
f 36/5/23 57/4/23 34/4/23
f 57/4/23 36/5/23 60/5/23
f 60/5/23 36/5/23 55/8/23
f 55/8/23 36/5/23 50/10/23
f 46/8/23 60/5/23 55/8/23
f 55/8/23 50/10/23 56/9/23
f 60/5/23 46/8/23 61/10/23
f 61/10/23 46/8/23 39/6/23
f 61/10/23 39/6/23 44/7/23
f 56/9/23 50/10/23 48/9/23
f 61/10/23 44/7/23 48/9/23
f 61/10/23 48/9/23 50/10/23
f 61/10/23 50/10/23 52/11/23
f 61/10/23 52/11/23 62/11/23
f 63/11/24 52/11/19 51/11/19
f 52/11/19 63/11/24 62/11/24
f 60/5/22 64/10/25 59/5/22
f 64/10/25 60/5/22 61/10/25
f 59/5/26 33/4/26 58/4/26
f 33/4/26 59/5/26 35/5/26
f 35/5/26 59/5/26 49/10/26
f 49/10/26 59/5/26 64/10/26
f 49/10/26 64/10/26 63/11/26
f 49/10/26 63/11/26 51/11/26
f 61/10/25 63/11/24 64/10/25
f 63/11/24 61/10/25 62/11/24
f 67/5/12 66/4/11 65/4/11
f 66/4/11 67/5/12 68/5/12
f 71/6/13 70/6/13 69/6/13
f 70/6/13 71/6/13 72/6/13
f 73/7/14 69/6/15 70/6/14
f 69/6/15 73/7/14 74/7/15
f 75/7/16 74/7/16 73/7/16
f 74/7/16 75/7/16 76/7/16
f 69/6/15 76/7/17 71/6/17
f 76/7/17 69/6/15 74/7/15
f 72/6/14 78/8/14 77/8/14
f 78/8/14 72/6/14 71/6/14
f 79/9/14 76/7/14 75/7/14
f 76/7/14 79/9/14 80/9/14
f 81/10/18 68/5/12 67/5/12
f 68/5/12 81/10/18 82/10/18
f 83/11/19 82/10/18 81/10/18
f 82/10/18 83/11/19 84/11/19
f 87/8/20 86/9/20 85/8/20
f 86/9/20 87/8/20 88/9/20
f 91/10/25 90/11/24 89/10/25
f 90/11/24 91/10/25 92/11/24
f 68/5/23 93/4/23 66/4/23
f 93/4/23 68/5/23 94/5/23
f 94/5/23 68/5/23 87/8/23
f 87/8/23 68/5/23 82/10/23
f 78/8/23 94/5/23 87/8/23
f 87/8/23 82/10/23 88/9/23
f 94/5/23 78/8/23 91/10/23
f 91/10/23 78/8/23 71/6/23
f 91/10/23 71/6/23 76/7/23
f 88/9/23 82/10/23 80/9/23
f 91/10/23 76/7/23 80/9/23
f 91/10/23 80/9/23 82/10/23
f 91/10/23 82/10/23 84/11/23
f 91/10/23 84/11/23 92/11/23
f 90/11/24 84/11/19 83/11/19
f 84/11/19 90/11/24 92/11/24
f 94/5/22 89/10/25 95/5/22
f 89/10/25 94/5/22 91/10/25
f 95/5/26 65/4/26 96/4/26
f 65/4/26 95/5/26 67/5/26
f 67/5/26 95/5/26 81/10/26
f 81/10/26 95/5/26 89/10/26
f 81/10/26 89/10/26 90/11/26
f 81/10/26 90/11/26 83/11/26
f 93/4/21 65/4/11 66/4/11
f 65/4/11 93/4/21 96/4/21
f 77/8/16 87/8/16 85/8/16
f 87/8/16 77/8/16 78/8/16
f 93/4/21 95/5/22 96/4/21
f 95/5/22 93/4/21 94/5/22
f 80/9/13 86/9/13 88/9/13
f 86/9/13 80/9/13 79/9/13
f 54/13/23 45/12/23 53/12/23
f 45/12/23 54/13/23 38/14/23
f 40/14/23 45/12/23 38/14/23
f 38/14/23 54/13/23 41/15/23
f 41/15/23 54/13/23 43/15/23
f 43/15/23 54/13/23 47/13/23
f 86/13/23 77/12/23 85/12/23
f 77/12/23 86/13/23 70/14/23
f 72/14/23 77/12/23 70/14/23
f 70/14/23 86/13/23 73/15/23
f 73/15/23 86/13/23 75/15/23
f 75/15/23 86/13/23 79/13/23

g freezer




usemtl colormap

f 3/2/1 2/1/2 1/1/1
f 2/1/2 3/2/1 4/2/2
f 7/1/4 6/2/3 5/1/3
f 6/2/3 7/1/4 8/2/4
f 10/2/5 1/1/1 9/1/5
f 1/1/1 10/2/5 3/2/1
f 11/1/6 10/2/5 9/1/5
f 10/2/5 11/1/6 12/2/6
f 5/1/3 14/2/7 13/1/7
f 14/2/7 5/1/3 6/2/3
f 4/2/2 7/1/4 2/1/2
f 7/1/4 4/2/2 8/2/4
f 2/1/8 9/1/8 1/1/8
f 9/1/8 2/1/8 11/1/8
f 11/1/8 2/1/8 7/1/8
f 11/1/8 7/1/8 15/1/8
f 15/1/8 7/1/8 5/1/8
f 15/1/8 5/1/8 13/1/8
f 15/1/9 12/2/6 11/1/6
f 12/2/6 15/1/9 16/2/9
f 13/1/7 16/2/9 15/1/9
f 16/2/9 13/1/7 14/2/7
f 19/3/10 18/3/10 17/3/10
f 18/3/10 19/3/10 20/3/10
f 20/3/10 19/3/10 21/3/10
f 20/3/10 21/3/10 22/3/10
f 22/3/10 21/3/10 23/3/10
f 22/3/10 23/3/10 24/3/10
f 17/1/5 26/3/1 25/3/5
f 26/3/1 17/1/5 18/1/1
f 21/1/9 28/3/6 27/3/9
f 28/3/6 21/1/9 19/1/6
f 27/3/8 30/3/8 29/3/8
f 14/3/8 30/3/8 27/3/8
f 27/3/8 16/3/8 14/3/8
f 6/3/8 30/3/8 14/3/8
f 27/3/8 12/3/8 16/3/8
f 6/3/8 31/3/8 30/3/8
f 8/3/8 31/3/8 6/3/8
f 4/3/8 31/3/8 8/3/8
f 28/3/8 12/3/8 27/3/8
f 4/3/8 32/3/8 31/3/8
f 28/3/8 10/3/8 12/3/8
f 28/3/8 3/3/8 10/3/8
f 32/3/8 4/3/8 3/3/8
f 28/3/8 32/3/8 3/3/8
f 25/3/8 32/3/8 28/3/8
f 32/3/8 25/3/8 26/3/8
f 22/1/4 30/3/3 31/3/4
f 30/3/3 22/1/4 24/1/3
f 20/1/2 31/3/4 32/3/2
f 31/3/4 20/1/2 22/1/4
f 26/3/1 20/1/2 32/3/2
f 20/1/2 26/3/1 18/1/1
f 19/1/6 25/3/5 28/3/6
f 25/3/5 19/1/6 17/1/5
f 30/3/3 23/1/7 29/3/7
f 23/1/7 30/3/3 24/1/3
f 29/3/7 21/1/9 27/3/9
f 21/1/9 29/3/7 23/1/7
f 35/5/12 34/4/11 33/4/11
f 34/4/11 35/5/12 36/5/12
f 39/6/13 38/6/13 37/6/13
f 38/6/13 39/6/13 40/6/13
f 41/7/14 37/6/15 38/6/14
f 37/6/15 41/7/14 42/7/15
f 43/7/16 42/7/16 41/7/16
f 42/7/16 43/7/16 44/7/16
f 37/6/15 44/7/17 39/6/17
f 44/7/17 37/6/15 42/7/15
f 40/6/14 46/8/14 45/8/14
f 46/8/14 40/6/14 39/6/14
f 47/9/14 44/7/14 43/7/14
f 44/7/14 47/9/14 48/9/14
f 51/11/19 50/10/18 49/10/18
f 50/10/18 51/11/19 52/11/19
f 49/10/18 36/5/12 35/5/12
f 36/5/12 49/10/18 50/10/18
f 55/8/20 54/9/20 53/8/20
f 54/9/20 55/8/20 56/9/20
f 57/4/21 33/4/11 34/4/11
f 33/4/11 57/4/21 58/4/21
f 48/9/13 54/9/13 56/9/13
f 54/9/13 48/9/13 47/9/13
f 57/4/21 59/5/22 58/4/21
f 59/5/22 57/4/21 60/5/22
f 45/8/16 55/8/16 53/8/16
f 55/8/16 45/8/16 46/8/16
f 36/5/23 57/4/23 34/4/23
f 57/4/23 36/5/23 60/5/23
f 60/5/23 36/5/23 55/8/23
f 55/8/23 36/5/23 50/10/23
f 46/8/23 60/5/23 55/8/23
f 55/8/23 50/10/23 56/9/23
f 60/5/23 46/8/23 61/10/23
f 61/10/23 46/8/23 39/6/23
f 61/10/23 39/6/23 44/7/23
f 56/9/23 50/10/23 48/9/23
f 61/10/23 44/7/23 48/9/23
f 61/10/23 48/9/23 50/10/23
f 61/10/23 50/10/23 52/11/23
f 61/10/23 52/11/23 62/11/23
f 63/11/24 52/11/19 51/11/19
f 52/11/19 63/11/24 62/11/24
f 60/5/22 64/10/25 59/5/22
f 64/10/25 60/5/22 61/10/25
f 59/5/26 33/4/26 58/4/26
f 33/4/26 59/5/26 35/5/26
f 35/5/26 59/5/26 49/10/26
f 49/10/26 59/5/26 64/10/26
f 49/10/26 64/10/26 63/11/26
f 49/10/26 63/11/26 51/11/26
f 61/10/25 63/11/24 64/10/25
f 63/11/24 61/10/25 62/11/24
f 67/5/12 66/4/11 65/4/11
f 66/4/11 67/5/12 68/5/12
f 71/6/13 70/6/13 69/6/13
f 70/6/13 71/6/13 72/6/13
f 73/7/14 69/6/15 70/6/14
f 69/6/15 73/7/14 74/7/15
f 75/7/16 74/7/16 73/7/16
f 74/7/16 75/7/16 76/7/16
f 69/6/15 76/7/17 71/6/17
f 76/7/17 69/6/15 74/7/15
f 72/6/14 78/8/14 77/8/14
f 78/8/14 72/6/14 71/6/14
f 79/9/14 76/7/14 75/7/14
f 76/7/14 79/9/14 80/9/14
f 81/10/18 68/5/12 67/5/12
f 68/5/12 81/10/18 82/10/18
f 83/11/19 82/10/18 81/10/18
f 82/10/18 83/11/19 84/11/19
f 87/8/20 86/9/20 85/8/20
f 86/9/20 87/8/20 88/9/20
f 91/10/25 90/11/24 89/10/25
f 90/11/24 91/10/25 92/11/24
f 68/5/23 93/4/23 66/4/23
f 93/4/23 68/5/23 94/5/23
f 94/5/23 68/5/23 87/8/23
f 87/8/23 68/5/23 82/10/23
f 78/8/23 94/5/23 87/8/23
f 87/8/23 82/10/23 88/9/23
f 94/5/23 78/8/23 91/10/23
f 91/10/23 78/8/23 71/6/23
f 91/10/23 71/6/23 76/7/23
f 88/9/23 82/10/23 80/9/23
f 91/10/23 76/7/23 80/9/23
f 91/10/23 80/9/23 82/10/23
f 91/10/23 82/10/23 84/11/23
f 91/10/23 84/11/23 92/11/23
f 90/11/24 84/11/19 83/11/19
f 84/11/19 90/11/24 92/11/24
f 94/5/22 89/10/25 95/5/22
f 89/10/25 94/5/22 91/10/25
f 95/5/26 65/4/26 96/4/26
f 65/4/26 95/5/26 67/5/26
f 67/5/26 95/5/26 81/10/26
f 81/10/26 95/5/26 89/10/26
f 81/10/26 89/10/26 90/11/26
f 81/10/26 90/11/26 83/11/26
f 93/4/21 65/4/11 66/4/11
f 65/4/11 93/4/21 96/4/21
f 77/8/16 87/8/16 85/8/16
f 87/8/16 77/8/16 78/8/16
f 93/4/21 95/5/22 96/4/21
f 95/5/22 93/4/21 94/5/22
f 80/9/13 86/9/13 88/9/13
f 86/9/13 80/9/13 79/9/13
f 54/13/23 45/12/23 53/12/23
f 45/12/23 54/13/23 38/14/23
f 40/14/23 45/12/23 38/14/23
f 38/14/23 54/13/23 41/15/23
f 41/15/23 54/13/23 43/15/23
f 43/15/23 54/13/23 47/13/23
f 86/13/23 77/12/23 85/12/23
f 77/12/23 86/13/23 70/14/23
f 72/14/23 77/12/23 70/14/23
f 70/14/23 86/13/23 73/15/23
f 73/15/23 86/13/23 75/15/23
f 75/15/23 86/13/23 79/13/23

