# Created by Kenney (www.kenney.nl)

mtllib freezers-standing.mtl

g freezers-standing

v 0.45 0.9 -0.5 1 1 1
v 0.45 0.9 -0.1 1 1 1
v -0.45 0.9 -0.5 1 1 1
v -0.45 0.9 -0.1 1 1 1
v 0.5 0.85 -0.5 1 1 1
v 0.5 0.15 -0.5 1 1 1
v 0.5 0.85 -0.1 1 1 1
v 0.5 0.15 -0.1 1 1 1
v -0.5 0.15 -0.5 1 1 1
v -0.5 0.85 -0.5 1 1 1
v -0.5 0.15 -0.1 1 1 1
v -0.5 0.85 -0.1 1 1 1
v 0.45 0.1 -0.1 1 1 1
v 0.45 0.1 -0.5 1 1 1
v -0.45 0.1 -0.1 1 1 1
v -0.45 0.1 -0.5 1 1 1
v -0.45 0 -0.5 1 1 1
v 0.45 0 -0.5 1 1 1
v 0.45 0 -0.1 1 1 1
v -0.45 0 -0.1 1 1 1
v 0.45 0.8292893 -0.1 1 1 1
v 0.45 0.8292893 0 1 1 1
v 0.4292893 0.85 -0.1 1 1 1
v 0.4292893 0.85 0 1 1 1
v 0.4 0.2 -0.05 1 1 1
v 0.4 0.8 -0.05 1 1 1
v 0.4 0.2 0 1 1 1
v 0.4 0.8 0 1 1 1
v 0.4292893 0.15 -0.1 1 1 1
v 0.4292893 0.15 0 1 1 1
v 0.45 0.1707107 -0.1 1 1 1
v 0.45 0.1707107 0 1 1 1
v 0.07499999 0.575 -0.05 1 1 1
v 0.07499999 0.575 0 1 1 1
v 0.07499999 0.8 -0.05 1 1 1
v 0.07499999 0.8 0 1 1 1
v 0.04571067 0.15 0 1 1 1
v 0.04571067 0.15 -0.1 1 1 1
v 0.02499999 0.1707107 -0.1 1 1 1
v 0.02499999 0.1707107 0 1 1 1
v 0.04571067 0.85 -0.1 1 1 1
v 0.04571067 0.85 0 1 1 1
v 0.02499999 0.8292893 -0.1 1 1 1
v 0.02499999 0.8292893 0 1 1 1
v 0.07499999 0.2 -0.05 1 1 1
v 0.07499999 0.2 0 1 1 1
v 0.07499999 0.425 0 1 1 1
v 0.125 0.425 -0.025 1 1 1
v 0.125 0.425 -0.05 1 1 1
v 0.07499999 0.425 -0.05 1 1 1
v 0.125 0.575 -0.05 1 1 1
v 0.125 0.575 -0.025 1 1 1
v -0.02500001 0.8292893 -0.1 1 1 1
v -0.02500001 0.8292893 0 1 1 1
v -0.04571068 0.85 -0.1 1 1 1
v -0.04571068 0.85 0 1 1 1
v -0.075 0.2 -0.05 1 1 1
v -0.075 0.8 -0.05 1 1 1
v -0.075 0.2 0 1 1 1
v -0.075 0.8 0 1 1 1
v -0.04571068 0.15 -0.1 1 1 1
v -0.04571068 0.15 0 1 1 1
v -0.02500001 0.1707107 -0.1 1 1 1
v -0.02500001 0.1707107 0 1 1 1
v -0.4 0.575 -0.05 1 1 1
v -0.4 0.575 0 1 1 1
v -0.4 0.8 -0.05 1 1 1
v -0.4 0.8 0 1 1 1
v -0.4292893 0.15 0 1 1 1
v -0.4292893 0.15 -0.1 1 1 1
v -0.45 0.1707107 -0.1 1 1 1
v -0.45 0.1707107 0 1 1 1
v -0.4292893 0.85 -0.1 1 1 1
v -0.4292893 0.85 0 1 1 1
v -0.45 0.8292893 -0.1 1 1 1
v -0.45 0.8292893 0 1 1 1
v -0.4 0.2 -0.05 1 1 1
v -0.4 0.2 0 1 1 1
v -0.4 0.425 0 1 1 1
v -0.35 0.425 -0.025 1 1 1
v -0.35 0.425 -0.05 1 1 1
v -0.4 0.425 -0.05 1 1 1
v -0.35 0.575 -0.05 1 1 1
v -0.35 0.575 -0.025 1 1 1

vn 0.3826834 0.9238795 0
vn -0.3826834 0.9238795 0
vn 0.9238795 0.3826834 0
vn 0.9238795 -0.3826834 0
vn -0.9238795 -0.3826834 0
vn -0.9238795 0.3826834 0
vn 0.7071068 -0.7071068 0
vn -0.7071068 -0.7071068 0
vn 0 0 -1
vn 0 0 1
vn 0 -1 0
vn 1 0 0
vn -1 0 0
vn 0.3826834 -0.9238795 0
vn -0.3826834 -0.9238795 0
vn 0 1 0
vn 0.8506508 0 0.5257311
vn 0.4472136 0 0.8944272

vt 0.21875 0.225
vt 0.21875 0.2138889
vt 0.21875 0.05833334
vt 0.21875 0.04722222
vt 0.21875 0.025
vt 0.09375 0.04722222
vt 0.09375 0.025
vt 0.46875 0.2190827
vt 0.46875 0.225
vt 0.46875 0.03928572
vt 0.46875 0.2107143
vt 0.46875 0.025
vt 0.46875 0.03091734
vt 0.46875 0.1464286
vt 0.46875 0.1035714
vt 0.59375 0.03928572
vt 0.59375 0.2107143
vt 0.59375 0.1035714
vt 0.59375 0.1464286

usemtl colormap

f 3/1/2 2/1/1 1/1/1
f 2/1/1 3/1/2 4/1/2
f 7/2/3 6/3/4 5/2/3
f 6/3/4 7/2/3 8/3/4
f 11/3/5 10/2/6 9/3/5
f 10/2/6 11/3/5 12/2/6
f 1/1/1 7/2/3 5/2/3
f 7/2/3 1/1/1 2/1/1
f 13/4/7 6/3/4 8/3/4
f 6/3/4 13/4/7 14/4/7
f 11/3/5 16/4/8 15/4/8
f 16/4/8 11/3/5 9/3/5
f 10/2/6 4/1/2 3/1/2
f 4/1/2 10/2/6 12/2/6
f 16/4/9 18/5/9 17/5/9
f 18/5/9 16/4/9 14/4/9
f 14/4/9 16/4/9 9/3/9
f 14/4/9 9/3/9 6/3/9
f 6/3/9 9/3/9 10/2/9
f 6/3/9 10/2/9 5/2/9
f 5/2/9 10/2/9 3/1/9
f 5/2/9 3/1/9 1/1/9
f 8/3/10 15/6/10 13/6/10
f 15/6/10 8/3/10 11/3/10
f 11/3/10 8/3/10 7/2/10
f 11/3/10 7/2/10 12/2/10
f 12/2/10 7/2/10 2/1/10
f 12/2/10 2/1/10 4/1/10
f 20/7/11 18/7/11 19/7/11
f 18/7/11 20/7/11 17/7/11
f 13/6/10 20/7/10 19/7/10
f 20/7/10 13/6/10 15/6/10
f 13/6/12 18/7/12 14/6/12
f 18/7/12 13/6/12 19/7/12
f 20/7/13 16/6/13 17/7/13
f 16/6/13 20/7/13 15/6/13
f 23/9/1 22/8/3 21/8/3
f 22/8/3 23/9/1 24/9/1
f 27/10/13 26/11/13 25/10/13
f 26/11/13 27/10/13 28/11/13
f 31/13/4 30/12/14 29/12/14
f 30/12/14 31/13/4 32/13/4
f 21/8/3 32/13/4 31/13/4
f 32/13/4 21/8/3 22/8/3
f 35/11/12 34/14/12 33/14/12
f 34/14/12 35/11/12 36/11/12
f 37/12/15 29/12/14 30/12/14
f 29/12/14 37/12/15 38/12/15
f 37/12/15 39/13/5 38/12/15
f 39/13/5 37/12/15 40/13/5
f 41/9/2 24/9/1 23/9/1
f 24/9/1 41/9/2 42/9/2
f 44/8/6 41/9/2 43/8/6
f 41/9/2 44/8/6 42/9/2
f 40/13/5 43/8/6 39/13/5
f 43/8/6 40/13/5 44/8/6
f 45/10/16 27/10/16 25/10/16
f 27/10/16 45/10/16 46/10/16
f 32/13/10 37/12/10 30/12/10
f 37/12/10 32/13/10 40/13/10
f 40/13/10 32/13/10 27/10/10
f 27/10/10 32/13/10 22/8/10
f 46/10/10 40/13/10 27/10/10
f 27/10/10 22/8/10 28/11/10
f 40/13/10 46/10/10 44/8/10
f 44/8/10 46/10/10 47/15/10
f 44/8/10 47/15/10 34/14/10
f 28/11/10 22/8/10 36/11/10
f 44/8/10 34/14/10 36/11/10
f 44/8/10 36/11/10 22/8/10
f 44/8/10 22/8/10 24/9/10
f 44/8/10 24/9/10 42/9/10
f 39/13/9 29/12/9 38/12/9
f 29/12/9 39/13/9 31/13/9
f 31/13/9 39/13/9 21/8/9
f 21/8/9 39/13/9 43/8/9
f 21/8/9 43/8/9 23/9/9
f 23/9/9 43/8/9 41/9/9
f 36/11/11 26/11/11 28/11/11
f 26/11/11 36/11/11 35/11/11
f 47/15/11 49/15/11 48/15/11
f 49/15/11 47/15/11 50/15/11
f 51/14/12 48/15/17 49/15/12
f 48/15/17 51/14/12 52/14/17
f 33/14/16 52/14/16 51/14/16
f 52/14/16 33/14/16 34/14/16
f 50/15/12 46/10/12 45/10/12
f 46/10/12 50/15/12 47/15/12
f 48/15/17 34/14/18 47/15/18
f 34/14/18 48/15/17 52/14/17
f 55/9/1 54/8/3 53/8/3
f 54/8/3 55/9/1 56/9/1
f 59/10/13 58/11/13 57/10/13
f 58/11/13 59/10/13 60/11/13
f 63/13/4 62/12/14 61/12/14
f 62/12/14 63/13/4 64/13/4
f 53/8/3 64/13/4 63/13/4
f 64/13/4 53/8/3 54/8/3
f 67/11/12 66/14/12 65/14/12
f 66/14/12 67/11/12 68/11/12
f 69/12/15 61/12/14 62/12/14
f 61/12/14 69/12/15 70/12/15
f 69/12/15 71/13/5 70/12/15
f 71/13/5 69/12/15 72/13/5
f 73/9/2 56/9/1 55/9/1
f 56/9/1 73/9/2 74/9/2
f 76/8/6 73/9/2 75/8/6
f 73/9/2 76/8/6 74/9/2
f 72/13/5 75/8/6 71/13/5
f 75/8/6 72/13/5 76/8/6
f 77/10/16 59/10/16 57/10/16
f 59/10/16 77/10/16 78/10/16
f 64/13/10 69/12/10 62/12/10
f 69/12/10 64/13/10 72/13/10
f 72/13/10 64/13/10 59/10/10
f 59/10/10 64/13/10 54/8/10
f 78/10/10 72/13/10 59/10/10
f 59/10/10 54/8/10 60/11/10
f 72/13/10 78/10/10 76/8/10
f 76/8/10 78/10/10 79/15/10
f 76/8/10 79/15/10 66/14/10
f 60/11/10 54/8/10 68/11/10
f 76/8/10 66/14/10 68/11/10
f 76/8/10 68/11/10 54/8/10
f 76/8/10 54/8/10 56/9/10
f 76/8/10 56/9/10 74/9/10
f 71/13/9 61/12/9 70/12/9
f 61/12/9 71/13/9 63/13/9
f 63/13/9 71/13/9 53/8/9
f 53/8/9 71/13/9 75/8/9
f 53/8/9 75/8/9 55/9/9
f 55/9/9 75/8/9 73/9/9
f 68/11/11 58/11/11 60/11/11
f 58/11/11 68/11/11 67/11/11
f 79/15/11 81/15/11 80/15/11
f 81/15/11 79/15/11 82/15/11
f 83/14/12 80/15/17 81/15/12
f 80/15/17 83/14/12 84/14/17
f 65/14/16 84/14/16 83/14/16
f 84/14/16 65/14/16 66/14/16
f 82/15/12 78/10/12 77/10/12
f 78/10/12 82/15/12 79/15/12
f 80/15/17 66/14/18 79/15/18
f 66/14/18 80/15/17 84/14/17
f 26/17/10 45/16/10 25/16/10
f 45/16/10 26/17/10 49/18/10
f 50/18/10 45/16/10 49/18/10
f 49/18/10 26/17/10 51/19/10
f 51/19/10 26/17/10 33/19/10
f 33/19/10 26/17/10 35/17/10
f 58/17/10 77/16/10 57/16/10
f 77/16/10 58/17/10 81/18/10
f 82/18/10 77/16/10 81/18/10
f 81/18/10 58/17/10 83/19/10
f 83/19/10 58/17/10 65/19/10
f 65/19/10 58/17/10 67/17/10

g freezers-standing




usemtl colormap

f 3/1/2 2/1/1 1/1/1
f 2/1/1 3/1/2 4/1/2
f 7/2/3 6/3/4 5/2/3
f 6/3/4 7/2/3 8/3/4
f 11/3/5 10/2/6 9/3/5
f 10/2/6 11/3/5 12/2/6
f 1/1/1 7/2/3 5/2/3
f 7/2/3 1/1/1 2/1/1
f 13/4/7 6/3/4 8/3/4
f 6/3/4 13/4/7 14/4/7
f 11/3/5 16/4/8 15/4/8
f 16/4/8 11/3/5 9/3/5
f 10/2/6 4/1/2 3/1/2
f 4/1/2 10/2/6 12/2/6
f 16/4/9 18/5/9 17/5/9
f 18/5/9 16/4/9 14/4/9
f 14/4/9 16/4/9 9/3/9
f 14/4/9 9/3/9 6/3/9
f 6/3/9 9/3/9 10/2/9
f 6/3/9 10/2/9 5/2/9
f 5/2/9 10/2/9 3/1/9
f 5/2/9 3/1/9 1/1/9
f 8/3/10 15/6/10 13/6/10
f 15/6/10 8/3/10 11/3/10
f 11/3/10 8/3/10 7/2/10
f 11/3/10 7/2/10 12/2/10
f 12/2/10 7/2/10 2/1/10
f 12/2/10 2/1/10 4/1/10
f 20/7/11 18/7/11 19/7/11
f 18/7/11 20/7/11 17/7/11
f 13/6/10 20/7/10 19/7/10
f 20/7/10 13/6/10 15/6/10
f 13/6/12 18/7/12 14/6/12
f 18/7/12 13/6/12 19/7/12
f 20/7/13 16/6/13 17/7/13
f 16/6/13 20/7/13 15/6/13
f 23/9/1 22/8/3 21/8/3
f 22/8/3 23/9/1 24/9/1
f 27/10/13 26/11/13 25/10/13
f 26/11/13 27/10/13 28/11/13
f 31/13/4 30/12/14 29/12/14
f 30/12/14 31/13/4 32/13/4
f 21/8/3 32/13/4 31/13/4
f 32/13/4 21/8/3 22/8/3
f 35/11/12 34/14/12 33/14/12
f 34/14/12 35/11/12 36/11/12
f 37/12/15 29/12/14 30/12/14
f 29/12/14 37/12/15 38/12/15
f 37/12/15 39/13/5 38/12/15
f 39/13/5 37/12/15 40/13/5
f 41/9/2 24/9/1 23/9/1
f 24/9/1 41/9/2 42/9/2
f 44/8/6 41/9/2 43/8/6
f 41/9/2 44/8/6 42/9/2
f 40/13/5 43/8/6 39/13/5
f 43/8/6 40/13/5 44/8/6
f 45/10/16 27/10/16 25/10/16
f 27/10/16 45/10/16 46/10/16
f 32/13/10 37/12/10 30/12/10
f 37/12/10 32/13/10 40/13/10
f 40/13/10 32/13/10 27/10/10
f 27/10/10 32/13/10 22/8/10
f 46/10/10 40/13/10 27/10/10
f 27/10/10 22/8/10 28/11/10
f 40/13/10 46/10/10 44/8/10
f 44/8/10 46/10/10 47/15/10
f 44/8/10 47/15/10 34/14/10
f 28/11/10 22/8/10 36/11/10
f 44/8/10 34/14/10 36/11/10
f 44/8/10 36/11/10 22/8/10
f 44/8/10 22/8/10 24/9/10
f 44/8/10 24/9/10 42/9/10
f 39/13/9 29/12/9 38/12/9
f 29/12/9 39/13/9 31/13/9
f 31/13/9 39/13/9 21/8/9
f 21/8/9 39/13/9 43/8/9
f 21/8/9 43/8/9 23/9/9
f 23/9/9 43/8/9 41/9/9
f 36/11/11 26/11/11 28/11/11
f 26/11/11 36/11/11 35/11/11
f 47/15/11 49/15/11 48/15/11
f 49/15/11 47/15/11 50/15/11
f 51/14/12 48/15/17 49/15/12
f 48/15/17 51/14/12 52/14/17
f 33/14/16 52/14/16 51/14/16
f 52/14/16 33/14/16 34/14/16
f 50/15/12 46/10/12 45/10/12
f 46/10/12 50/15/12 47/15/12
f 48/15/17 34/14/18 47/15/18
f 34/14/18 48/15/17 52/14/17
f 55/9/1 54/8/3 53/8/3
f 54/8/3 55/9/1 56/9/1
f 59/10/13 58/11/13 57/10/13
f 58/11/13 59/10/13 60/11/13
f 63/13/4 62/12/14 61/12/14
f 62/12/14 63/13/4 64/13/4
f 53/8/3 64/13/4 63/13/4
f 64/13/4 53/8/3 54/8/3
f 67/11/12 66/14/12 65/14/12
f 66/14/12 67/11/12 68/11/12
f 69/12/15 61/12/14 62/12/14
f 61/12/14 69/12/15 70/12/15
f 69/12/15 71/13/5 70/12/15
f 71/13/5 69/12/15 72/13/5
f 73/9/2 56/9/1 55/9/1
f 56/9/1 73/9/2 74/9/2
f 76/8/6 73/9/2 75/8/6
f 73/9/2 76/8/6 74/9/2
f 72/13/5 75/8/6 71/13/5
f 75/8/6 72/13/5 76/8/6
f 77/10/16 59/10/16 57/10/16
f 59/10/16 77/10/16 78/10/16
f 64/13/10 69/12/10 62/12/10
f 69/12/10 64/13/10 72/13/10
f 72/13/10 64/13/10 59/10/10
f 59/10/10 64/13/10 54/8/10
f 78/10/10 72/13/10 59/10/10
f 59/10/10 54/8/10 60/11/10
f 72/13/10 78/10/10 76/8/10
f 76/8/10 78/10/10 79/15/10
f 76/8/10 79/15/10 66/14/10
f 60/11/10 54/8/10 68/11/10
f 76/8/10 66/14/10 68/11/10
f 76/8/10 68/11/10 54/8/10
f 76/8/10 54/8/10 56/9/10
f 76/8/10 56/9/10 74/9/10
f 71/13/9 61/12/9 70/12/9
f 61/12/9 71/13/9 63/13/9
f 63/13/9 71/13/9 53/8/9
f 53/8/9 71/13/9 75/8/9
f 53/8/9 75/8/9 55/9/9
f 55/9/9 75/8/9 73/9/9
f 68/11/11 58/11/11 60/11/11
f 58/11/11 68/11/11 67/11/11
f 79/15/11 81/15/11 80/15/11
f 81/15/11 79/15/11 82/15/11
f 83/14/12 80/15/17 81/15/12
f 80/15/17 83/14/12 84/14/17
f 65/14/16 84/14/16 83/14/16
f 84/14/16 65/14/16 66/14/16
f 82/15/12 78/10/12 77/10/12
f 78/10/12 82/15/12 79/15/12
f 80/15/17 66/14/18 79/15/18
f 66/14/18 80/15/17 84/14/17
f 26/17/10 45/16/10 25/16/10
f 45/16/10 26/17/10 49/18/10
f 50/18/10 45/16/10 49/18/10
f 49/18/10 26/17/10 51/19/10
f 51/19/10 26/17/10 33/19/10
f 33/19/10 26/17/10 35/17/10
f 58/17/10 77/16/10 57/16/10
f 77/16/10 58/17/10 81/18/10
f 82/18/10 77/16/10 81/18/10
f 81/18/10 58/17/10 83/19/10
f 83/19/10 58/17/10 65/19/10
f 65/19/10 58/17/10 67/17/10

