# Created by Kenney (www.kenney.nl)

mtllib shopping-basket.mtl

g shopping-basket

v 0.15 0.1 0.025 1 1 1
v 0.175 0.125 0.025 1 1 1
v 0.15 0.1 -0.025 1 1 1
v 0.175 0.125 -0.025 1 1 1
v 0.175 0.225 0.025 1 1 1
v 0.175 0.225 -0.025 1 1 1
v 0.15 0.25 -0.025 1 1 1
v 0.15 0.25 0.025 1 1 1
v -0.15 0.1 -0.025 1 1 1
v -0.125 0.1 -0.025 1 1 1
v -0.175 0.125 -0.025 1 1 1
v -0.125 0.2 -0.025 1 1 1
v -0.175 0.225 -0.025 1 1 1
v -0.15 0.25 -0.025 1 1 1
v 0.125 0.2 -0.025 1 1 1
v 0.125 0.1 -0.025 1 1 1
v -0.15 0.1 0.025 1 1 1
v -0.175 0.125 0.025 1 1 1
v -0.175 0.225 0.025 1 1 1
v -0.15 0.25 0.025 1 1 1
v 0.125 0.2 0.025 1 1 1
v -0.125 0.2 0.025 1 1 1
v 0.125 0.1 0.025 1 1 1
v -0.125 0.1 0.025 1 1 1
v 0.15 0.05 -0.125 1 1 1
v 0.15 0.05 -0.09999999 1 1 1
v 0.15 0.1 -0.125 1 1 1
v 0.15 0.1 -0.09999999 1 1 1
v 0.1 0.05 -0.175 1 1 1
v 0.1 0.1 -0.175 1 1 1
v 0.075 0.05 -0.175 1 1 1
v 0.075 0.1 -0.175 1 1 1
v 0.07499999 0.05 -0.125 1 1 1
v 0.07499999 0.1 -0.125 1 1 1
v 0.09005438 0.1 -0.125 1 1 1
v 0.09005438 0.05 -0.125 1 1 1
v 0.09999999 0.1 -0.09999999 1 1 1
v 0.09999999 0.05 -0.09999999 1 1 1
v 0.09999999 0.05 -0.1150544 1 1 1
v 0.09999999 0.1 -0.1150544 1 1 1
v 0.1353553 0.05 -0.1603553 1 1 1
v 0.1353553 0.1 -0.1603553 1 1 1
v -0.09999999 0.05 -0.175 1 1 1
v -0.075 0.05 -0.175 1 1 1
v -0.09999999 0.1 -0.175 1 1 1
v -0.075 0.1 -0.175 1 1 1
v -0.15 0.05 -0.125 1 1 1
v -0.15 0.1 -0.125 1 1 1
v -0.15 0.05 -0.1 1 1 1
v -0.15 0.1 -0.1 1 1 1
v -0.09999999 0.05 -0.1 1 1 1
v -0.09999999 0.1 -0.1 1 1 1
v -0.09999999 0.1 -0.1150544 1 1 1
v -0.09999999 0.05 -0.1150544 1 1 1
v -0.075 0.1 -0.125 1 1 1
v -0.075 0.05 -0.125 1 1 1
v -0.09005438 0.05 -0.125 1 1 1
v -0.09005438 0.1 -0.125 1 1 1
v -0.1353553 0.05 -0.1603553 1 1 1
v -0.1353553 0.1 -0.1603553 1 1 1
v 0.09999999 0.05 0.175 1 1 1
v 0.075 0.05 0.175 1 1 1
v 0.09999999 0.1 0.175 1 1 1
v 0.075 0.1 0.175 1 1 1
v 0.15 0.05 0.125 1 1 1
v 0.15 0.1 0.125 1 1 1
v 0.15 0.05 0.1 1 1 1
v 0.15 0.1 0.1 1 1 1
v 0.09999999 0.05 0.1 1 1 1
v 0.09999999 0.1 0.1 1 1 1
v 0.09999999 0.1 0.1150544 1 1 1
v 0.09999999 0.05 0.1150544 1 1 1
v 0.075 0.1 0.125 1 1 1
v 0.075 0.05 0.125 1 1 1
v 0.09005438 0.05 0.125 1 1 1
v 0.09005438 0.1 0.125 1 1 1
v 0.1353553 0.05 0.1603553 1 1 1
v 0.1353553 0.1 0.1603553 1 1 1
v -0.15 0.05 0.125 1 1 1
v -0.15 0.05 0.1 1 1 1
v -0.15 0.1 0.125 1 1 1
v -0.15 0.1 0.1 1 1 1
v -0.09999999 0.05 0.175 1 1 1
v -0.09999999 0.1 0.175 1 1 1
v -0.07499999 0.05 0.175 1 1 1
v -0.07499999 0.1 0.175 1 1 1
v -0.07499999 0.05 0.125 1 1 1
v -0.07499999 0.1 0.125 1 1 1
v -0.09005438 0.1 0.125 1 1 1
v -0.09005438 0.05 0.125 1 1 1
v -0.1 0.1 0.09999999 1 1 1
v -0.1 0.05 0.09999999 1 1 1
v -0.09999999 0.05 0.1150544 1 1 1
v -0.09999999 0.1 0.1150544 1 1 1
v -0.1353553 0.05 0.1603553 1 1 1
v -0.1353553 0.1 0.1603553 1 1 1
v -0.15 0 -0.125 1 1 1
v -0.15 0 0.125 1 1 1
v -0.1353553 0 -0.1603553 1 1 1
v -0.1353553 0 0.1603553 1 1 1
v -0.1 0 -0.175 1 1 1
v -0.1 0 -0.1150544 1 1 1
v -0.1 0 0.175 1 1 1
v -0.09005438 0 -0.125 1 1 1
v 0.09005438 0 -0.125 1 1 1
v 0.1 0 -0.175 1 1 1
v 0.1 0 -0.1150544 1 1 1
v -0.1 0 0.1150544 1 1 1
v -0.09005438 0 0.125 1 1 1
v 0.09005438 0 0.125 1 1 1
v 0.1353553 0 -0.1603553 1 1 1
v 0.1 0 0.175 1 1 1
v 0.1 0 0.1150544 1 1 1
v 0.1353553 0 0.1603553 1 1 1
v 0.15 0 -0.125 1 1 1
v 0.15 0 0.125 1 1 1
v 0.15 0.05 -0.125 1 1 1
v 0.1 0.05 0.175 1 1 1
v 0.1 0.05 0.1150544 1 1 1
v 0.1 0.05 -0.1150544 1 1 1
v 0.1 0.05 -0.175 1 1 1
v -0.1 0.05 0.175 1 1 1
v -0.1 0.05 -0.175 1 1 1
v -0.1 0.05 0.1150544 1 1 1
v -0.1 0.05 -0.1150544 1 1 1
v -0.1 0.1 -0.175 1 1 1
v -0.1 0.1 -0.1150544 1 1 1
v -0.1 0.1 0.175 1 1 1
v 0.1 0.1 -0.175 1 1 1
v 0.1 0.1 -0.1150544 1 1 1
v -0.1 0.1 0.1150544 1 1 1
v 0.1 0.1 0.175 1 1 1
v 0.1 0.1 0.1150544 1 1 1
v 0.15 0.1 -0.125 1 1 1
v 0.15 0.15 0.125 1 1 1
v 0.1353553 0.15 0.1603553 1 1 1
v 0.15 0.15 -0.125 1 1 1
v 0.1353553 0.15 -0.1603553 1 1 1
v 0.1 0.15 0.175 1 1 1
v 0.1 0.15 0.1150544 1 1 1
v 0.1 0.15 -0.1150544 1 1 1
v 0.09005438 0.15 0.125 1 1 1
v 0.1 0.15 -0.175 1 1 1
v 0.09005438 0.15 -0.125 1 1 1
v -0.1 0.15 0.175 1 1 1
v -0.1 0.15 -0.175 1 1 1
v -0.09005438 0.15 0.125 1 1 1
v -0.1 0.15 0.1150544 1 1 1
v -0.09005438 0.15 -0.125 1 1 1
v -0.1 0.15 -0.1150544 1 1 1
v -0.1353553 0.15 0.1603553 1 1 1
v -0.1353553 0.15 -0.1603553 1 1 1
v -0.15 0.15 0.125 1 1 1
v -0.15 0.15 -0.125 1 1 1

vn 0.7071068 -0.7071068 0
vn 0.9238795 -0.3826834 0
vn 0.9238795 0.3826834 0
vn 0.7071068 0.7071068 0
vn 0 0 -1
vn -0.7071068 -0.7071068 0
vn -0.9238795 -0.3826834 0
vn -0.9238795 0.3826834 0
vn -0.7071068 0.7071068 0
vn 0 -1 0
vn 0 1 0
vn 0 0 1
vn -1 0 0
vn 1 0 0
vn 0.9807854 0 -0.1950902
vn 1 0 1.192093E-07
vn 0.1950905 0 -0.9807854
vn 1.192093E-07 0 -1
vn -1 0 -1.192093E-07
vn -0.3826836 0 0.9238796
vn -1.192093E-07 0 1
vn -0.9238797 0 0.3826834
vn 0.7071069 0 -0.7071067
vn -0.1950903 0 -0.9807853
vn -0.9807853 0 -0.1950904
vn 0.9238795 0 0.3826834
vn 0.3826835 0 0.9238795
vn -0.7071067 0 -0.7071068
vn 0.1950904 0 0.9807853
vn 2.980235E-08 0 1
vn 0.9807853 0 0.1950903
vn 1 0 -2.980235E-08
vn -2.980235E-08 0 -1
vn -0.9238795 0 -0.3826834
vn -1 0 2.980235E-08
vn -0.3826835 0 -0.9238795
vn 0.7071067 0 0.7071068
vn -0.9807854 0 0.1950905
vn -1 0 1.192093E-07
vn -0.1950903 0 0.9807854
vn 1.192093E-07 0 1
vn 1 0 -1.192093E-07
vn 0.3826834 0 -0.9238797
vn -1.192093E-07 0 -1
vn 0.9238796 0 -0.3826837
vn -0.7071068 0 0.7071068
vn 0.9807853 0 -0.1950903
vn 0.9807853 0 0.1950903
vn 0.7071068 0 -0.7071068
vn 0.1950903 0 -0.9807853
vn -0.7071068 0 -0.7071068
vn -0.9807853 0 -0.1950903
vn -0.9807853 0 0.1950903
vn -0.7071068 0 0.7071068
vn -0.1950903 0 0.9807853
vn 0.1950903 0 0.9807853
vn 0.7071068 0 0.7071068
vn -0.9238795 0 0.3826834
vn -0.3826834 0 0.9238795
vn -0.3826834 0 -0.9238795
vn 0.3826834 0 -0.9238795
vn 0.9238795 0 -0.3826834
vn 0.9238795 0 0.3826834
vn 0.3826834 0 0.9238795

vt 0.59375 0.025
vt 0.59375 0.05833333
vt 0.59375 0.1916666
vt 0.59375 0.225
vt 0.59375 0.1583333
vt 0.15625 0.375
vt 0.21875 0.325
vt 0.21875 0.425
vt 0.46875 0.075

usemtl colormap

f 3/1/1 2/2/2 1/1/1
f 2/2/2 3/1/1 4/2/2
f 4/2/2 5/3/3 2/2/2
f 5/3/3 4/2/2 6/3/3
f 7/4/4 5/3/3 6/3/3
f 5/3/3 7/4/4 8/4/4
f 11/2/5 10/1/5 9/1/5
f 10/1/5 11/2/5 12/5/5
f 12/5/5 11/2/5 13/3/5
f 6/3/5 12/5/5 13/3/5
f 6/3/5 13/3/5 14/4/5
f 6/3/5 14/4/5 7/4/5
f 6/3/5 15/5/5 12/5/5
f 4/2/5 15/5/5 6/3/5
f 3/1/5 15/5/5 4/2/5
f 15/5/5 3/1/5 16/1/5
f 17/1/6 11/2/7 9/1/6
f 11/2/7 17/1/6 18/2/7
f 18/2/7 13/3/8 11/2/7
f 13/3/8 18/2/7 19/3/8
f 19/3/8 14/4/9 13/3/8
f 14/4/9 19/3/8 20/4/9
f 22/5/10 15/5/10 21/5/10
f 15/5/10 22/5/10 12/5/10
f 14/4/11 8/4/11 7/4/11
f 8/4/11 14/4/11 20/4/11
f 1/1/12 21/5/12 23/1/12
f 21/5/12 1/1/12 2/2/12
f 21/5/12 2/2/12 5/3/12
f 21/5/12 5/3/12 22/5/12
f 22/5/12 5/3/12 19/3/12
f 19/3/12 5/3/12 20/4/12
f 20/4/12 5/3/12 8/4/12
f 18/2/12 22/5/12 19/3/12
f 18/2/12 24/1/12 22/5/12
f 24/1/12 18/2/12 17/1/12
f 23/1/13 15/5/13 16/1/13
f 15/5/13 23/1/13 21/5/13
f 23/1/10 3/1/10 1/1/10
f 3/1/10 23/1/10 16/1/10
f 22/5/14 10/1/14 12/5/14
f 10/1/14 22/5/14 24/1/14
f 24/1/10 9/1/10 10/1/10
f 9/1/10 24/1/10 17/1/10
f 27/6/15 26/6/16 25/6/15
f 26/6/16 27/6/15 28/6/16
f 31/6/18 30/6/17 29/6/17
f 30/6/17 31/6/18 32/6/18
f 34/6/19 31/6/19 33/6/19
f 31/6/19 34/6/19 32/6/19
f 34/6/21 36/6/20 35/6/20
f 36/6/20 34/6/21 33/6/21
f 37/6/21 26/6/21 28/6/21
f 26/6/21 37/6/21 38/6/21
f 37/6/19 39/6/22 38/6/19
f 39/6/22 37/6/19 40/6/22
f 29/6/17 42/6/23 41/6/23
f 42/6/23 29/6/17 30/6/17
f 42/6/23 25/6/15 41/6/23
f 25/6/15 42/6/23 27/6/15
f 40/6/22 36/6/20 39/6/22
f 36/6/20 40/6/22 35/6/20
f 45/6/24 44/6/5 43/6/24
f 44/6/5 45/6/24 46/6/5
f 49/6/13 48/6/25 47/6/25
f 48/6/25 49/6/13 50/6/13
f 52/6/12 49/6/12 51/6/12
f 49/6/12 52/6/12 50/6/12
f 52/6/14 54/6/26 53/6/26
f 54/6/26 52/6/14 51/6/14
f 55/6/14 44/6/14 46/6/14
f 44/6/14 55/6/14 56/6/14
f 55/6/12 57/6/27 56/6/12
f 57/6/27 55/6/12 58/6/27
f 47/6/25 60/6/28 59/6/28
f 60/6/28 47/6/25 48/6/25
f 60/6/28 43/6/24 59/6/28
f 43/6/24 60/6/28 45/6/24
f 58/6/27 54/6/26 57/6/27
f 54/6/26 58/6/27 53/6/26
f 63/6/29 62/6/30 61/6/29
f 62/6/30 63/6/29 64/6/30
f 67/6/32 66/6/31 65/6/31
f 66/6/31 67/6/32 68/6/32
f 70/6/33 67/6/33 69/6/33
f 67/6/33 70/6/33 68/6/33
f 70/6/35 72/6/34 71/6/34
f 72/6/34 70/6/35 69/6/35
f 73/6/35 62/6/35 64/6/35
f 62/6/35 73/6/35 74/6/35
f 73/6/33 75/6/36 74/6/33
f 75/6/36 73/6/33 76/6/36
f 65/6/31 78/6/37 77/6/37
f 78/6/37 65/6/31 66/6/31
f 78/6/37 61/6/29 77/6/37
f 61/6/29 78/6/37 63/6/29
f 76/6/36 72/6/34 75/6/36
f 72/6/34 76/6/36 71/6/34
f 81/6/38 80/6/39 79/6/38
f 80/6/39 81/6/38 82/6/39
f 85/6/41 84/6/40 83/6/40
f 84/6/40 85/6/41 86/6/41
f 88/6/42 85/6/42 87/6/42
f 85/6/42 88/6/42 86/6/42
f 88/6/44 90/6/43 89/6/43
f 90/6/43 88/6/44 87/6/44
f 91/6/44 80/6/44 82/6/44
f 80/6/44 91/6/44 92/6/44
f 91/6/42 93/6/45 92/6/42
f 93/6/45 91/6/42 94/6/45
f 83/6/40 96/6/46 95/6/46
f 96/6/46 83/6/40 84/6/40
f 96/6/46 79/6/38 95/6/46
f 79/6/38 96/6/46 81/6/38
f 94/6/45 90/6/43 93/6/45
f 90/6/43 94/6/45 89/6/43
f 99/7/10 98/7/10 97/7/10
f 99/7/10 100/7/10 98/7/10
f 101/7/10 100/7/10 99/7/10
f 102/7/10 100/7/10 101/7/10
f 102/7/10 103/7/10 100/7/10
f 101/7/10 104/7/10 102/7/10
f 101/7/10 105/7/10 104/7/10
f 106/7/10 105/7/10 101/7/10
f 106/7/10 107/7/10 105/7/10
f 108/7/10 103/7/10 102/7/10
f 109/7/10 103/7/10 108/7/10
f 110/7/10 103/7/10 109/7/10
f 111/7/10 107/7/10 106/7/10
f 110/7/10 112/7/10 103/7/10
f 112/7/10 110/7/10 113/7/10
f 111/7/10 113/7/10 107/7/10
f 111/7/10 112/7/10 113/7/10
f 111/7/10 114/7/10 112/7/10
f 115/7/10 114/7/10 111/7/10
f 114/7/10 115/7/10 116/7/10
f 117/8/11 77/8/11 65/8/11
f 77/8/11 117/8/11 41/8/11
f 77/8/11 41/8/11 118/8/11
f 118/8/11 41/8/11 119/8/11
f 41/8/11 120/8/11 119/8/11
f 118/8/11 119/8/11 75/8/11
f 120/8/11 41/8/11 121/8/11
f 120/8/11 121/8/11 36/8/11
f 118/8/11 75/8/11 122/8/11
f 36/8/11 121/8/11 123/8/11
f 122/8/11 75/8/11 90/8/11
f 122/8/11 90/8/11 124/8/11
f 36/8/11 123/8/11 57/8/11
f 122/8/11 124/8/11 125/8/11
f 57/8/11 123/8/11 125/8/11
f 122/8/11 125/8/11 95/8/11
f 95/8/11 125/8/11 123/8/11
f 95/8/11 123/8/11 59/8/11
f 95/8/11 59/8/11 79/8/11
f 79/8/11 59/8/11 47/8/11
f 65/8/48 115/7/47 117/8/47
f 115/7/47 65/8/48 116/7/48
f 117/8/47 111/7/49 41/8/49
f 111/7/49 117/8/47 115/7/47
f 121/8/50 111/7/49 106/7/50
f 111/7/49 121/8/50 41/8/49
f 123/8/24 106/7/50 101/7/24
f 106/7/50 123/8/24 121/8/50
f 59/8/51 101/7/24 99/7/51
f 101/7/24 59/8/51 123/8/24
f 97/7/52 59/8/51 99/7/51
f 59/8/51 97/7/52 47/8/52
f 98/7/53 47/8/52 97/7/52
f 47/8/52 98/7/53 79/8/53
f 100/7/54 79/8/53 98/7/53
f 79/8/53 100/7/54 95/8/54
f 122/8/55 100/7/54 103/7/55
f 100/7/54 122/8/55 95/8/54
f 118/8/56 103/7/55 112/7/56
f 103/7/55 118/8/56 122/8/55
f 77/8/57 112/7/56 114/7/57
f 112/7/56 77/8/57 118/8/56
f 77/8/57 116/7/48 65/8/48
f 116/7/48 77/8/57 114/7/57
f 120/8/58 105/7/59 107/7/58
f 105/7/59 120/8/58 36/8/59
f 113/7/34 120/8/58 107/7/58
f 120/8/58 113/7/34 119/8/34
f 110/7/60 119/8/34 113/7/34
f 119/8/34 110/7/60 75/8/60
f 90/8/61 110/7/60 109/7/61
f 110/7/60 90/8/61 75/8/60
f 90/8/61 108/7/62 124/8/62
f 108/7/62 90/8/61 109/7/61
f 124/8/62 102/7/63 125/8/63
f 102/7/63 124/8/62 108/7/62
f 125/8/63 104/7/64 57/8/64
f 104/7/64 125/8/63 102/7/63
f 36/8/59 104/7/64 105/7/59
f 104/7/64 36/8/59 57/8/64
f 107/7/11 110/7/11 113/7/11
f 110/7/11 107/7/11 105/7/11
f 110/7/11 105/7/11 109/7/11
f 109/7/11 105/7/11 104/7/11
f 109/7/11 104/7/11 108/7/11
f 108/7/11 104/7/11 102/7/11
f 60/7/10 81/7/10 48/7/10
f 60/7/10 96/7/10 81/7/10
f 126/7/10 96/7/10 60/7/10
f 127/7/10 96/7/10 126/7/10
f 127/7/10 128/7/10 96/7/10
f 126/7/10 58/7/10 127/7/10
f 126/7/10 35/7/10 58/7/10
f 129/7/10 35/7/10 126/7/10
f 129/7/10 130/7/10 35/7/10
f 131/7/10 128/7/10 127/7/10
f 89/7/10 128/7/10 131/7/10
f 76/7/10 128/7/10 89/7/10
f 42/7/10 130/7/10 129/7/10
f 76/7/10 132/7/10 128/7/10
f 132/7/10 76/7/10 133/7/10
f 42/7/10 133/7/10 130/7/10
f 42/7/10 132/7/10 133/7/10
f 42/7/10 78/7/10 132/7/10
f 134/7/10 78/7/10 42/7/10
f 78/7/10 134/7/10 66/7/10
f 137/8/11 136/8/11 135/8/11
f 136/8/11 137/8/11 138/8/11
f 136/8/11 138/8/11 139/8/11
f 139/8/11 138/8/11 140/8/11
f 138/8/11 141/8/11 140/8/11
f 139/8/11 140/8/11 142/8/11
f 141/8/11 138/8/11 143/8/11
f 141/8/11 143/8/11 144/8/11
f 139/8/11 142/8/11 145/8/11
f 144/8/11 143/8/11 146/8/11
f 145/8/11 142/8/11 147/8/11
f 145/8/11 147/8/11 148/8/11
f 144/8/11 146/8/11 149/8/11
f 145/8/11 148/8/11 150/8/11
f 149/8/11 146/8/11 150/8/11
f 145/8/11 150/8/11 151/8/11
f 151/8/11 150/8/11 146/8/11
f 151/8/11 146/8/11 152/8/11
f 151/8/11 152/8/11 153/8/11
f 153/8/11 152/8/11 154/8/11
f 135/8/48 134/7/47 137/8/47
f 134/7/47 135/8/48 66/7/48
f 137/8/47 42/7/49 138/8/49
f 42/7/49 137/8/47 134/7/47
f 143/8/50 42/7/49 129/7/50
f 42/7/49 143/8/50 138/8/49
f 146/8/24 129/7/50 126/7/24
f 129/7/50 146/8/24 143/8/50
f 152/8/51 126/7/24 60/7/51
f 126/7/24 152/8/51 146/8/24
f 48/7/52 152/8/51 60/7/51
f 152/8/51 48/7/52 154/8/52
f 81/7/53 154/8/52 48/7/52
f 154/8/52 81/7/53 153/8/53
f 96/7/54 153/8/53 81/7/53
f 153/8/53 96/7/54 151/8/54
f 145/8/55 96/7/54 128/7/55
f 96/7/54 145/8/55 151/8/54
f 139/8/56 128/7/55 132/7/56
f 128/7/55 139/8/56 145/8/55
f 136/8/57 132/7/56 78/7/57
f 132/7/56 136/8/57 139/8/56
f 136/8/57 66/7/48 135/8/48
f 66/7/48 136/8/57 78/7/57
f 141/8/58 35/7/59 130/7/58
f 35/7/59 141/8/58 144/8/59
f 133/7/34 141/8/58 130/7/58
f 141/8/58 133/7/34 140/8/34
f 76/7/60 140/8/34 133/7/34
f 140/8/34 76/7/60 142/8/60
f 147/8/61 76/7/60 89/7/61
f 76/7/60 147/8/61 142/8/60
f 147/8/61 131/7/62 148/8/62
f 131/7/62 147/8/61 89/7/61
f 148/8/62 127/7/63 150/8/63
f 127/7/63 148/8/62 131/7/62
f 150/8/63 58/7/64 149/8/64
f 58/7/64 150/8/63 127/7/63
f 144/8/59 58/7/64 35/7/59
f 58/7/64 144/8/59 149/8/64
f 113/9/10 110/9/10 107/9/10
f 105/9/10 107/9/10 110/9/10
f 109/9/10 105/9/10 110/9/10
f 104/9/10 105/9/10 109/9/10
f 108/9/10 104/9/10 109/9/10
f 102/9/10 104/9/10 108/9/10

g shopping-basket




usemtl colormap

f 3/1/1 2/2/2 1/1/1
f 2/2/2 3/1/1 4/2/2
f 4/2/2 5/3/3 2/2/2
f 5/3/3 4/2/2 6/3/3
f 7/4/4 5/3/3 6/3/3
f 5/3/3 7/4/4 8/4/4
f 11/2/5 10/1/5 9/1/5
f 10/1/5 11/2/5 12/5/5
f 12/5/5 11/2/5 13/3/5
f 6/3/5 12/5/5 13/3/5
f 6/3/5 13/3/5 14/4/5
f 6/3/5 14/4/5 7/4/5
f 6/3/5 15/5/5 12/5/5
f 4/2/5 15/5/5 6/3/5
f 3/1/5 15/5/5 4/2/5
f 15/5/5 3/1/5 16/1/5
f 17/1/6 11/2/7 9/1/6
f 11/2/7 17/1/6 18/2/7
f 18/2/7 13/3/8 11/2/7
f 13/3/8 18/2/7 19/3/8
f 19/3/8 14/4/9 13/3/8
f 14/4/9 19/3/8 20/4/9
f 22/5/10 15/5/10 21/5/10
f 15/5/10 22/5/10 12/5/10
f 14/4/11 8/4/11 7/4/11
f 8/4/11 14/4/11 20/4/11
f 1/1/12 21/5/12 23/1/12
f 21/5/12 1/1/12 2/2/12
f 21/5/12 2/2/12 5/3/12
f 21/5/12 5/3/12 22/5/12
f 22/5/12 5/3/12 19/3/12
f 19/3/12 5/3/12 20/4/12
f 20/4/12 5/3/12 8/4/12
f 18/2/12 22/5/12 19/3/12
f 18/2/12 24/1/12 22/5/12
f 24/1/12 18/2/12 17/1/12
f 23/1/13 15/5/13 16/1/13
f 15/5/13 23/1/13 21/5/13
f 23/1/10 3/1/10 1/1/10
f 3/1/10 23/1/10 16/1/10
f 22/5/14 10/1/14 12/5/14
f 10/1/14 22/5/14 24/1/14
f 24/1/10 9/1/10 10/1/10
f 9/1/10 24/1/10 17/1/10
f 27/6/15 26/6/16 25/6/15
f 26/6/16 27/6/15 28/6/16
f 31/6/18 30/6/17 29/6/17
f 30/6/17 31/6/18 32/6/18
f 34/6/19 31/6/19 33/6/19
f 31/6/19 34/6/19 32/6/19
f 34/6/21 36/6/20 35/6/20
f 36/6/20 34/6/21 33/6/21
f 37/6/21 26/6/21 28/6/21
f 26/6/21 37/6/21 38/6/21
f 37/6/19 39/6/22 38/6/19
f 39/6/22 37/6/19 40/6/22
f 29/6/17 42/6/23 41/6/23
f 42/6/23 29/6/17 30/6/17
f 42/6/23 25/6/15 41/6/23
f 25/6/15 42/6/23 27/6/15
f 40/6/22 36/6/20 39/6/22
f 36/6/20 40/6/22 35/6/20
f 45/6/24 44/6/5 43/6/24
f 44/6/5 45/6/24 46/6/5
f 49/6/13 48/6/25 47/6/25
f 48/6/25 49/6/13 50/6/13
f 52/6/12 49/6/12 51/6/12
f 49/6/12 52/6/12 50/6/12
f 52/6/14 54/6/26 53/6/26
f 54/6/26 52/6/14 51/6/14
f 55/6/14 44/6/14 46/6/14
f 44/6/14 55/6/14 56/6/14
f 55/6/12 57/6/27 56/6/12
f 57/6/27 55/6/12 58/6/27
f 47/6/25 60/6/28 59/6/28
f 60/6/28 47/6/25 48/6/25
f 60/6/28 43/6/24 59/6/28
f 43/6/24 60/6/28 45/6/24
f 58/6/27 54/6/26 57/6/27
f 54/6/26 58/6/27 53/6/26
f 63/6/29 62/6/30 61/6/29
f 62/6/30 63/6/29 64/6/30
f 67/6/32 66/6/31 65/6/31
f 66/6/31 67/6/32 68/6/32
f 70/6/33 67/6/33 69/6/33
f 67/6/33 70/6/33 68/6/33
f 70/6/35 72/6/34 71/6/34
f 72/6/34 70/6/35 69/6/35
f 73/6/35 62/6/35 64/6/35
f 62/6/35 73/6/35 74/6/35
f 73/6/33 75/6/36 74/6/33
f 75/6/36 73/6/33 76/6/36
f 65/6/31 78/6/37 77/6/37
f 78/6/37 65/6/31 66/6/31
f 78/6/37 61/6/29 77/6/37
f 61/6/29 78/6/37 63/6/29
f 76/6/36 72/6/34 75/6/36
f 72/6/34 76/6/36 71/6/34
f 81/6/38 80/6/39 79/6/38
f 80/6/39 81/6/38 82/6/39
f 85/6/41 84/6/40 83/6/40
f 84/6/40 85/6/41 86/6/41
f 88/6/42 85/6/42 87/6/42
f 85/6/42 88/6/42 86/6/42
f 88/6/44 90/6/43 89/6/43
f 90/6/43 88/6/44 87/6/44
f 91/6/44 80/6/44 82/6/44
f 80/6/44 91/6/44 92/6/44
f 91/6/42 93/6/45 92/6/42
f 93/6/45 91/6/42 94/6/45
f 83/6/40 96/6/46 95/6/46
f 96/6/46 83/6/40 84/6/40
f 96/6/46 79/6/38 95/6/46
f 79/6/38 96/6/46 81/6/38
f 94/6/45 90/6/43 93/6/45
f 90/6/43 94/6/45 89/6/43
f 99/7/10 98/7/10 97/7/10
f 99/7/10 100/7/10 98/7/10
f 101/7/10 100/7/10 99/7/10
f 102/7/10 100/7/10 101/7/10
f 102/7/10 103/7/10 100/7/10
f 101/7/10 104/7/10 102/7/10
f 101/7/10 105/7/10 104/7/10
f 106/7/10 105/7/10 101/7/10
f 106/7/10 107/7/10 105/7/10
f 108/7/10 103/7/10 102/7/10
f 109/7/10 103/7/10 108/7/10
f 110/7/10 103/7/10 109/7/10
f 111/7/10 107/7/10 106/7/10
f 110/7/10 112/7/10 103/7/10
f 112/7/10 110/7/10 113/7/10
f 111/7/10 113/7/10 107/7/10
f 111/7/10 112/7/10 113/7/10
f 111/7/10 114/7/10 112/7/10
f 115/7/10 114/7/10 111/7/10
f 114/7/10 115/7/10 116/7/10
f 117/8/11 77/8/11 65/8/11
f 77/8/11 117/8/11 41/8/11
f 77/8/11 41/8/11 118/8/11
f 118/8/11 41/8/11 119/8/11
f 41/8/11 120/8/11 119/8/11
f 118/8/11 119/8/11 75/8/11
f 120/8/11 41/8/11 121/8/11
f 120/8/11 121/8/11 36/8/11
f 118/8/11 75/8/11 122/8/11
f 36/8/11 121/8/11 123/8/11
f 122/8/11 75/8/11 90/8/11
f 122/8/11 90/8/11 124/8/11
f 36/8/11 123/8/11 57/8/11
f 122/8/11 124/8/11 125/8/11
f 57/8/11 123/8/11 125/8/11
f 122/8/11 125/8/11 95/8/11
f 95/8/11 125/8/11 123/8/11
f 95/8/11 123/8/11 59/8/11
f 95/8/11 59/8/11 79/8/11
f 79/8/11 59/8/11 47/8/11
f 65/8/48 115/7/47 117/8/47
f 115/7/47 65/8/48 116/7/48
f 117/8/47 111/7/49 41/8/49
f 111/7/49 117/8/47 115/7/47
f 121/8/50 111/7/49 106/7/50
f 111/7/49 121/8/50 41/8/49
f 123/8/24 106/7/50 101/7/24
f 106/7/50 123/8/24 121/8/50
f 59/8/51 101/7/24 99/7/51
f 101/7/24 59/8/51 123/8/24
f 97/7/52 59/8/51 99/7/51
f 59/8/51 97/7/52 47/8/52
f 98/7/53 47/8/52 97/7/52
f 47/8/52 98/7/53 79/8/53
f 100/7/54 79/8/53 98/7/53
f 79/8/53 100/7/54 95/8/54
f 122/8/55 100/7/54 103/7/55
f 100/7/54 122/8/55 95/8/54
f 118/8/56 103/7/55 112/7/56
f 103/7/55 118/8/56 122/8/55
f 77/8/57 112/7/56 114/7/57
f 112/7/56 77/8/57 118/8/56
f 77/8/57 116/7/48 65/8/48
f 116/7/48 77/8/57 114/7/57
f 120/8/58 105/7/59 107/7/58
f 105/7/59 120/8/58 36/8/59
f 113/7/34 120/8/58 107/7/58
f 120/8/58 113/7/34 119/8/34
f 110/7/60 119/8/34 113/7/34
f 119/8/34 110/7/60 75/8/60
f 90/8/61 110/7/60 109/7/61
f 110/7/60 90/8/61 75/8/60
f 90/8/61 108/7/62 124/8/62
f 108/7/62 90/8/61 109/7/61
f 124/8/62 102/7/63 125/8/63
f 102/7/63 124/8/62 108/7/62
f 125/8/63 104/7/64 57/8/64
f 104/7/64 125/8/63 102/7/63
f 36/8/59 104/7/64 105/7/59
f 104/7/64 36/8/59 57/8/64
f 107/7/11 110/7/11 113/7/11
f 110/7/11 107/7/11 105/7/11
f 110/7/11 105/7/11 109/7/11
f 109/7/11 105/7/11 104/7/11
f 109/7/11 104/7/11 108/7/11
f 108/7/11 104/7/11 102/7/11
f 60/7/10 81/7/10 48/7/10
f 60/7/10 96/7/10 81/7/10
f 126/7/10 96/7/10 60/7/10
f 127/7/10 96/7/10 126/7/10
f 127/7/10 128/7/10 96/7/10
f 126/7/10 58/7/10 127/7/10
f 126/7/10 35/7/10 58/7/10
f 129/7/10 35/7/10 126/7/10
f 129/7/10 130/7/10 35/7/10
f 131/7/10 128/7/10 127/7/10
f 89/7/10 128/7/10 131/7/10
f 76/7/10 128/7/10 89/7/10
f 42/7/10 130/7/10 129/7/10
f 76/7/10 132/7/10 128/7/10
f 132/7/10 76/7/10 133/7/10
f 42/7/10 133/7/10 130/7/10
f 42/7/10 132/7/10 133/7/10
f 42/7/10 78/7/10 132/7/10
f 134/7/10 78/7/10 42/7/10
f 78/7/10 134/7/10 66/7/10
f 137/8/11 136/8/11 135/8/11
f 136/8/11 137/8/11 138/8/11
f 136/8/11 138/8/11 139/8/11
f 139/8/11 138/8/11 140/8/11
f 138/8/11 141/8/11 140/8/11
f 139/8/11 140/8/11 142/8/11
f 141/8/11 138/8/11 143/8/11
f 141/8/11 143/8/11 144/8/11
f 139/8/11 142/8/11 145/8/11
f 144/8/11 143/8/11 146/8/11
f 145/8/11 142/8/11 147/8/11
f 145/8/11 147/8/11 148/8/11
f 144/8/11 146/8/11 149/8/11
f 145/8/11 148/8/11 150/8/11
f 149/8/11 146/8/11 150/8/11
f 145/8/11 150/8/11 151/8/11
f 151/8/11 150/8/11 146/8/11
f 151/8/11 146/8/11 152/8/11
f 151/8/11 152/8/11 153/8/11
f 153/8/11 152/8/11 154/8/11
f 135/8/48 134/7/47 137/8/47
f 134/7/47 135/8/48 66/7/48
f 137/8/47 42/7/49 138/8/49
f 42/7/49 137/8/47 134/7/47
f 143/8/50 42/7/49 129/7/50
f 42/7/49 143/8/50 138/8/49
f 146/8/24 129/7/50 126/7/24
f 129/7/50 146/8/24 143/8/50
f 152/8/51 126/7/24 60/7/51
f 126/7/24 152/8/51 146/8/24
f 48/7/52 152/8/51 60/7/51
f 152/8/51 48/7/52 154/8/52
f 81/7/53 154/8/52 48/7/52
f 154/8/52 81/7/53 153/8/53
f 96/7/54 153/8/53 81/7/53
f 153/8/53 96/7/54 151/8/54
f 145/8/55 96/7/54 128/7/55
f 96/7/54 145/8/55 151/8/54
f 139/8/56 128/7/55 132/7/56
f 128/7/55 139/8/56 145/8/55
f 136/8/57 132/7/56 78/7/57
f 132/7/56 136/8/57 139/8/56
f 136/8/57 66/7/48 135/8/48
f 66/7/48 136/8/57 78/7/57
f 141/8/58 35/7/59 130/7/58
f 35/7/59 141/8/58 144/8/59
f 133/7/34 141/8/58 130/7/58
f 141/8/58 133/7/34 140/8/34
f 76/7/60 140/8/34 133/7/34
f 140/8/34 76/7/60 142/8/60
f 147/8/61 76/7/60 89/7/61
f 76/7/60 147/8/61 142/8/60
f 147/8/61 131/7/62 148/8/62
f 131/7/62 147/8/61 89/7/61
f 148/8/62 127/7/63 150/8/63
f 127/7/63 148/8/62 131/7/62
f 150/8/63 58/7/64 149/8/64
f 58/7/64 150/8/63 127/7/63
f 144/8/59 58/7/64 35/7/59
f 58/7/64 144/8/59 149/8/64
f 113/9/10 110/9/10 107/9/10
f 105/9/10 107/9/10 110/9/10
f 109/9/10 105/9/10 110/9/10
f 104/9/10 105/9/10 109/9/10
f 108/9/10 104/9/10 109/9/10
f 102/9/10 104/9/10 108/9/10

