# Created by Kenney (www.kenney.nl)

mtllib wall.mtl

g wall

v 0.5 3.763054E-09 0.3 1 1 1
v 0.5 0.15 0.3 1 1 1
v 0.5 0 -0.3 1 1 1
v 0.5 0.2 0.25 1 1 1
v 0.5 0.6 0.25 1 1 1
v 0.5 1 0.25 1 1 1
v 0.5 0.2 -0.25 1 1 1
v 0.5 0.15 -0.3 1 1 1
v 0.5 1 -0.25 1 1 1
v -0.5 1 -0.25 1 1 1
v -0.5 1 0.25 1 1 1
v -0.5 0.2 -0.25 1 1 1
v -0.5 0 -0.3 1 1 1
v -0.5 0.15 -0.3 1 1 1
v -0.5 0.6 0.25 1 1 1
v -0.5 0.2 0.25 1 1 1
v -0.5 2.44538E-09 0.3 1 1 1
v -0.5 0.15 0.3 1 1 1

vn 1 0 -1.096129E-12
vn 0 1 0
vn -1 0 1.096129E-12
vn -1.096129E-12 0 -1
vn 0 -1 0
vn 1.096129E-12 0 1
vn 1.012692E-12 0.3826834 0.9238795
vn 7.750806E-13 0.7071068 0.7071068
vn -1.012692E-12 0.3826834 -0.9238795
vn -7.750806E-13 0.7071068 -0.7071068

vt 0.09375 0.025
vt 0.09375 0.055
vt 0.09375 0.065
vt 0.09375 0.145
vt 0.09375 0.225
vt 0.21875 0.065
vt 0.21875 0.225
vt 0.21875 0.025
vt 0.21875 0.145
vt 0.21875 0.025
vt 0.21875 0.175
vt 0.21875 0.025
vt 0.46875 0.025
vt 0.46875 0.175
vt 0.46875 0.225
vt 0.21875 0.275
vt 0.21875 0.475

usemtl colormap

f 3/1/1 2/2/1 1/1/1
f 2/2/1 3/1/1 4/3/1
f 4/3/1 3/1/1 5/4/1
f 5/4/1 3/1/1 6/5/1
f 6/5/1 3/1/1 7/3/1
f 7/3/1 3/1/1 8/2/1
f 9/5/1 6/5/1 7/3/1
f 11/5/2 9/5/2 10/5/2
f 9/5/2 11/5/2 6/5/2
f 10/5/3 12/3/3 11/5/3
f 13/1/3 11/5/3 12/3/3
f 13/1/3 12/3/3 14/2/3
f 13/1/3 15/4/3 11/5/3
f 13/1/3 16/3/3 15/4/3
f 17/1/3 16/3/3 13/1/3
f 16/3/3 17/1/3 18/2/3
f 10/7/4 7/6/4 12/6/4
f 7/6/4 10/7/4 9/7/4
f 13/8/5 1/8/5 17/8/5
f 1/8/5 13/8/5 3/8/5
f 6/7/6 15/9/6 5/9/6
f 15/9/6 6/7/6 11/7/6
f 1/12/6 18/11/7 17/10/6
f 18/11/7 1/12/6 2/11/7
f 2/11/7 16/7/8 18/11/7
f 16/7/8 2/11/7 4/7/8
f 14/14/9 3/13/4 13/13/4
f 3/13/4 14/14/9 8/14/9
f 7/15/10 14/14/9 12/15/10
f 14/14/9 7/15/10 8/14/9
f 5/17/6 16/16/6 4/16/6
f 16/16/6 5/17/6 15/17/6

g wall




usemtl colormap

f 3/1/1 2/2/1 1/1/1
f 2/2/1 3/1/1 4/3/1
f 4/3/1 3/1/1 5/4/1
f 5/4/1 3/1/1 6/5/1
f 6/5/1 3/1/1 7/3/1
f 7/3/1 3/1/1 8/2/1
f 9/5/1 6/5/1 7/3/1
f 11/5/2 9/5/2 10/5/2
f 9/5/2 11/5/2 6/5/2
f 10/5/3 12/3/3 11/5/3
f 13/1/3 11/5/3 12/3/3
f 13/1/3 12/3/3 14/2/3
f 13/1/3 15/4/3 11/5/3
f 13/1/3 16/3/3 15/4/3
f 17/1/3 16/3/3 13/1/3
f 16/3/3 17/1/3 18/2/3
f 10/7/4 7/6/4 12/6/4
f 7/6/4 10/7/4 9/7/4
f 13/8/5 1/8/5 17/8/5
f 1/8/5 13/8/5 3/8/5
f 6/7/6 15/9/6 5/9/6
f 15/9/6 6/7/6 11/7/6
f 1/12/6 18/11/7 17/10/6
f 18/11/7 1/12/6 2/11/7
f 2/11/7 16/7/8 18/11/7
f 16/7/8 2/11/7 4/7/8
f 14/14/9 3/13/4 13/13/4
f 3/13/4 14/14/9 8/14/9
f 7/15/10 14/14/9 12/15/10
f 14/14/9 7/15/10 8/14/9
f 5/17/6 16/16/6 4/16/6
f 16/16/6 5/17/6 15/17/6

